{"glyphs":{"0":{"ha":949,"x_min":0,"x_max":0,"o":"m 69 488 b 476 -17 69 186 229 -17 b 879 488 722 -17 879 186 b 476 989 879 788 722 989 b 69 488 229 989 69 788 z m 735 488 b 476 107 735 260 635 107 b 214 488 317 107 214 260 b 476 865 214 713 317 865 b 735 488 635 865 735 713 z "},"1":{"ha":563,"x_min":0,"x_max":0,"o":"m 443 972 l 254 972 b 32 711 251 776 113 711 l 32 576 b 299 840 194 576 272 690 l 299 0 l 443 0 z "},"2":{"ha":888,"x_min":0,"x_max":0,"o":"m 233 124 b 504 379 254 243 332 317 b 811 683 674 442 811 514 b 453 989 811 844 688 989 b 65 597 186 989 65 810 l 211 597 b 458 865 211 783 318 865 b 667 697 579 865 667 803 b 488 510 667 610 608 558 b 75 0 167 376 76 272 l 825 0 l 825 124 z "},"3":{"ha":897,"x_min":0,"x_max":0,"o":"m 601 511 b 792 707 725 540 792 608 b 440 989 792 872 647 989 b 74 650 222 989 74 854 l 218 650 b 435 865 218 783 303 865 b 647 703 560 865 647 803 b 393 563 647 603 546 563 l 393 456 b 688 286 574 456 688 397 b 453 107 688 175 593 107 b 207 333 300 107 207 197 l 61 333 b 460 -17 61 122 218 -17 b 833 279 689 -17 833 103 b 601 511 833 400 749 479 z "},"4":{"ha":919,"x_min":0,"x_max":0,"o":"m 872 399 l 736 399 l 736 972 l 514 972 b 29 399 367 724 149 504 l 29 276 l 593 276 l 593 0 l 736 0 l 736 276 l 872 276 z m 208 399 b 593 878 308 496 476 678 l 593 399 z "},"5":{"ha":899,"x_min":0,"x_max":0,"o":"m 519 696 b 226 553 374 696 261 614 l 294 849 l 796 849 l 796 972 l 176 972 l 63 475 l 208 475 b 472 614 244 536 357 614 b 694 365 601 614 694 517 b 456 100 694 211 594 100 b 201 342 321 100 206 207 l 56 342 b 454 -17 61 129 246 -17 b 840 369 678 -17 840 147 b 519 696 840 585 689 696 z "},"6":{"ha":908,"x_min":0,"x_max":0,"o":"m 69 433 b 474 -17 69 113 258 -17 b 840 308 692 -17 840 118 b 496 633 840 504 682 633 b 207 449 304 633 219 499 b 488 868 207 671 299 868 b 679 694 610 868 667 792 l 825 694 b 490 989 810 863 686 989 b 69 433 190 989 69 688 z m 694 317 b 465 97 694 192 600 97 b 226 313 325 97 226 197 b 469 526 226 429 329 526 b 694 317 600 526 694 442 z "},"7":{"ha":814,"x_min":0,"x_max":0,"o":"m 35 972 l 35 850 l 628 850 b 90 0 443 661 201 304 l 251 0 b 793 850 361 306 579 626 l 793 972 z "},"8":{"ha":869,"x_min":0,"x_max":0,"o":"m 617 514 b 765 718 708 554 765 626 b 440 989 765 878 632 989 b 103 718 242 989 103 878 b 258 514 103 626 161 554 b 65 278 139 471 65 385 b 440 -17 65 104 221 -17 b 804 278 654 -17 804 104 b 617 514 804 386 732 471 z m 440 876 b 622 715 546 876 622 810 b 440 549 622 617 546 549 b 246 715 328 549 246 617 b 440 876 246 810 328 876 z m 440 99 b 211 288 308 99 211 178 b 440 471 211 394 308 471 b 658 288 567 471 658 394 b 440 99 658 176 567 99 z "},"9":{"ha":908,"x_min":0,"x_max":0,"o":"m 839 539 b 435 989 839 860 650 989 b 68 664 217 989 68 854 b 413 339 68 468 226 339 b 701 524 604 339 688 474 b 421 104 701 301 610 104 b 229 278 299 104 242 181 l 83 278 b 418 -17 99 110 222 -17 b 839 539 718 -17 839 285 z m 214 656 b 443 875 214 781 308 875 b 682 660 583 875 682 775 b 439 446 682 543 579 446 b 214 656 308 446 214 531 z "}," ":{"ha":328,"x_min":0,"x_max":0,"o":""},"A":{"ha":971,"x_min":0,"x_max":0,"o":"m 813 0 l 964 0 l 588 972 l 383 972 l 7 0 l 157 0 l 261 271 l 708 271 z m 311 400 l 485 849 l 658 400 z "},"Á":{"ha":971,"x_min":0,"x_max":0,"o":"m 767 1285 l 588 1285 l 401 1056 l 510 1056 z m 813 0 l 964 0 l 588 972 l 383 972 l 7 0 l 157 0 l 261 271 l 708 271 z m 311 400 l 485 849 l 658 400 z "},"Ă":{"ha":971,"x_min":0,"x_max":0,"o":"m 483 1056 b 733 1286 629 1056 731 1150 l 629 1286 b 483 1136 628 1196 569 1136 b 338 1286 396 1136 339 1196 l 233 1286 b 483 1056 236 1150 338 1056 z m 813 0 l 964 0 l 588 972 l 383 972 l 7 0 l 157 0 l 261 271 l 708 271 z m 311 400 l 485 849 l 658 400 z "},"Â":{"ha":971,"x_min":0,"x_max":0,"o":"m 482 1210 l 631 1056 l 756 1056 l 567 1285 l 397 1285 l 208 1056 l 333 1056 z m 813 0 l 964 0 l 588 972 l 383 972 l 7 0 l 157 0 l 261 271 l 708 271 z m 311 400 l 485 849 l 658 400 z "},"Ä":{"ha":971,"x_min":0,"x_max":0,"o":"m 317 1075 b 404 1161 365 1075 404 1113 b 317 1250 404 1210 365 1250 b 231 1161 267 1250 231 1210 b 317 1075 231 1113 267 1075 z m 653 1075 b 740 1161 701 1075 740 1113 b 653 1250 740 1210 701 1250 b 565 1161 603 1250 565 1210 b 653 1075 565 1113 603 1075 z m 813 0 l 964 0 l 588 972 l 383 972 l 7 0 l 157 0 l 261 271 l 708 271 z m 311 400 l 485 849 l 658 400 z "},"À":{"ha":971,"x_min":0,"x_max":0,"o":"m 567 1042 l 381 1271 l 201 1271 l 458 1042 z m 813 0 l 964 0 l 588 972 l 383 972 l 7 0 l 157 0 l 261 271 l 708 271 z m 311 400 l 485 849 l 658 400 z "},"Ā":{"ha":971,"x_min":0,"x_max":0,"o":"m 775 1143 l 192 1143 l 192 1056 l 775 1056 z m 813 0 l 964 0 l 588 972 l 383 972 l 7 0 l 157 0 l 261 271 l 708 271 z m 311 400 l 485 849 l 658 400 z "},"Ą":{"ha":971,"x_min":0,"x_max":0,"o":"m 949 -172 b 900 -111 917 -172 900 -142 b 953 0 900 -75 913 -40 l 964 0 l 588 972 l 383 972 l 7 0 l 157 0 l 261 271 l 708 271 l 813 0 l 857 0 b 796 -131 818 -37 796 -87 b 917 -236 796 -190 840 -236 b 1008 -206 953 -236 988 -226 l 1008 -146 b 949 -172 994 -164 976 -172 z m 311 400 l 485 849 l 658 400 z "},"Å":{"ha":971,"x_min":0,"x_max":0,"o":"m 483 1050 b 656 1222 578 1050 656 1128 b 483 1394 656 1317 578 1394 b 311 1222 389 1394 311 1317 b 483 1050 311 1128 389 1050 z m 483 1319 b 581 1222 538 1319 581 1276 b 483 1125 581 1168 538 1125 b 386 1222 429 1125 386 1168 b 483 1319 386 1276 429 1319 z m 813 0 l 964 0 l 588 972 l 383 972 l 7 0 l 157 0 l 261 271 l 708 271 z m 311 400 l 485 849 l 658 400 z "},"Ã":{"ha":971,"x_min":0,"x_max":0,"o":"m 371 1163 b 611 1069 446 1163 526 1069 b 774 1242 679 1069 774 1118 l 700 1242 b 619 1164 696 1204 669 1164 b 379 1258 554 1164 474 1258 b 213 1086 300 1258 213 1200 l 288 1086 b 371 1163 293 1126 325 1163 z m 813 0 l 964 0 l 588 972 l 383 972 l 7 0 l 157 0 l 261 271 l 708 271 z m 311 400 l 485 849 l 658 400 z "},"Æ":{"ha":1476,"x_min":0,"x_max":0,"o":"m 1406 843 l 1406 972 l 556 972 l -31 0 l 132 0 l 288 258 l 692 258 l 692 0 l 1406 0 l 1406 129 l 846 129 l 846 436 l 1372 436 l 1372 558 l 846 558 l 846 843 z m 367 388 l 692 926 l 692 388 z "},"B":{"ha":961,"x_min":0,"x_max":0,"o":"m 721 521 b 858 719 808 557 858 628 b 583 972 858 872 756 972 l 113 972 l 113 0 l 622 0 b 903 279 799 0 903 111 b 721 521 903 403 835 492 z m 258 856 l 533 856 b 713 700 651 856 713 794 b 542 558 713 614 643 558 l 258 558 z m 578 115 l 258 115 l 258 456 l 593 456 b 757 286 692 456 757 388 b 578 115 757 183 697 115 z "},"C":{"ha":1018,"x_min":0,"x_max":0,"o":"m 58 482 b 529 -17 58 188 256 -17 b 963 376 779 -17 949 142 l 817 376 b 529 106 801 214 693 106 b 206 483 343 106 206 258 b 528 867 206 711 342 867 b 817 576 696 867 799 750 l 963 576 b 528 989 950 824 775 989 b 58 482 257 989 58 781 z "},"Ć":{"ha":1018,"x_min":0,"x_max":0,"o":"m 614 1285 l 428 1056 l 536 1056 l 793 1285 z m 58 482 b 529 -17 58 188 256 -17 b 963 376 779 -17 949 142 l 817 376 b 529 106 801 214 693 106 b 206 483 343 106 206 258 b 528 867 206 711 342 867 b 817 576 696 867 799 750 l 963 576 b 528 989 950 824 775 989 b 58 482 257 989 58 781 z "},"Č":{"ha":1018,"x_min":0,"x_max":0,"o":"m 428 1056 l 596 1056 l 785 1285 l 661 1285 l 513 1131 l 363 1285 l 239 1285 z m 529 106 b 206 483 343 106 206 258 b 528 867 206 711 342 867 b 817 576 696 867 799 750 l 963 576 b 528 989 950 824 775 989 b 58 482 257 989 58 781 b 529 -17 58 188 256 -17 b 963 376 779 -17 949 142 l 817 376 b 529 106 801 214 693 106 z "},"Ç":{"ha":1018,"x_min":0,"x_max":0,"o":"m 529 106 b 206 483 343 106 206 258 b 528 867 206 711 342 867 b 817 576 696 867 799 750 l 963 576 b 528 989 950 824 775 989 b 58 482 257 989 58 781 b 444 -10 58 218 215 28 l 376 -143 l 456 -143 b 532 -110 475 -121 508 -110 b 582 -160 563 -110 582 -132 b 510 -221 582 -196 550 -221 b 431 -181 485 -221 450 -208 l 360 -224 b 504 -292 382 -256 435 -292 b 671 -156 597 -292 671 -233 b 565 -58 671 -99 625 -58 b 483 -90 533 -58 506 -74 l 550 -17 b 963 376 789 -8 949 149 l 817 376 b 529 106 801 214 693 106 z "},"Ċ":{"ha":1018,"x_min":0,"x_max":0,"o":"m 419 1150 b 510 1058 419 1099 460 1058 b 601 1150 561 1058 601 1099 b 510 1239 601 1200 561 1239 b 419 1150 460 1239 419 1200 z m 58 482 b 529 -17 58 188 256 -17 b 963 376 779 -17 949 142 l 817 376 b 529 106 801 214 693 106 b 206 483 343 106 206 258 b 528 867 206 711 342 867 b 817 576 696 867 799 750 l 963 576 b 528 989 950 824 775 989 b 58 482 257 989 58 781 z "},"D":{"ha":1000,"x_min":0,"x_max":0,"o":"m 113 972 l 113 0 l 510 0 b 938 482 811 0 938 207 b 503 972 938 758 808 972 z m 454 126 l 258 126 l 258 846 l 451 846 b 792 482 717 846 792 689 b 454 126 792 278 718 126 z "},"Ð":{"ha":1000,"x_min":0,"x_max":0,"o":"m 503 972 l 113 972 l 113 543 l -74 543 l -74 454 l 113 454 l 113 0 l 510 0 b 938 482 811 0 938 207 b 503 972 938 758 808 972 z m 454 126 l 258 126 l 258 454 l 463 454 l 463 543 l 258 543 l 258 846 l 451 846 b 792 482 717 846 792 689 b 454 126 792 278 718 126 z "},"Ď":{"ha":1000,"x_min":0,"x_max":0,"o":"m 415 1056 l 583 1056 l 772 1285 l 649 1285 l 500 1131 l 350 1285 l 226 1285 z m 503 972 l 113 972 l 113 0 l 510 0 b 938 482 811 0 938 207 b 503 972 938 758 808 972 z m 454 126 l 258 126 l 258 846 l 451 846 b 792 482 717 846 792 689 b 454 126 792 278 718 126 z "},"Đ":{"ha":1000,"x_min":0,"x_max":0,"o":"m 503 972 l 113 972 l 113 543 l -74 543 l -74 454 l 113 454 l 113 0 l 510 0 b 938 482 811 0 938 207 b 503 972 938 758 808 972 z m 454 126 l 258 126 l 258 454 l 463 454 l 463 543 l 258 543 l 258 846 l 451 846 b 792 482 717 846 792 689 b 454 126 792 278 718 126 z "},"E":{"ha":889,"x_min":0,"x_max":0,"o":"m 818 843 l 818 972 l 113 972 l 113 0 l 818 0 l 818 129 l 258 129 l 258 436 l 785 436 l 785 558 l 258 558 l 258 843 z "},"É":{"ha":889,"x_min":0,"x_max":0,"o":"m 754 1285 l 575 1285 l 389 1056 l 497 1056 z m 818 843 l 818 972 l 113 972 l 113 0 l 818 0 l 818 129 l 258 129 l 258 436 l 785 436 l 785 558 l 258 558 l 258 843 z "},"Ě":{"ha":889,"x_min":0,"x_max":0,"o":"m 389 1056 l 557 1056 l 746 1285 l 622 1285 l 474 1131 l 324 1285 l 200 1285 z m 818 843 l 818 972 l 113 972 l 113 0 l 818 0 l 818 129 l 258 129 l 258 436 l 785 436 l 785 558 l 258 558 l 258 843 z "},"Ê":{"ha":889,"x_min":0,"x_max":0,"o":"m 469 1210 l 618 1056 l 743 1056 l 554 1285 l 385 1285 l 196 1056 l 321 1056 z m 818 843 l 818 972 l 113 972 l 113 0 l 818 0 l 818 129 l 258 129 l 258 436 l 785 436 l 785 558 l 258 558 l 258 843 z "},"Ë":{"ha":889,"x_min":0,"x_max":0,"o":"m 304 1075 b 392 1161 353 1075 392 1113 b 304 1250 392 1210 353 1250 b 218 1161 254 1250 218 1210 b 304 1075 218 1113 254 1075 z m 640 1075 b 728 1161 689 1075 728 1113 b 640 1250 728 1210 689 1250 b 553 1161 590 1250 553 1210 b 640 1075 553 1113 590 1075 z m 818 843 l 818 972 l 113 972 l 113 0 l 818 0 l 818 129 l 258 129 l 258 436 l 785 436 l 785 558 l 258 558 l 258 843 z "},"Ė":{"ha":889,"x_min":0,"x_max":0,"o":"m 472 1058 b 564 1150 524 1058 564 1099 b 472 1239 564 1200 524 1239 b 382 1150 422 1239 382 1200 b 472 1058 382 1099 422 1058 z m 818 843 l 818 972 l 113 972 l 113 0 l 818 0 l 818 129 l 258 129 l 258 436 l 785 436 l 785 558 l 258 558 l 258 843 z "},"È":{"ha":889,"x_min":0,"x_max":0,"o":"m 556 1042 l 369 1271 l 190 1271 l 447 1042 z m 818 843 l 818 972 l 113 972 l 113 0 l 818 0 l 818 129 l 258 129 l 258 436 l 785 436 l 785 558 l 258 558 l 258 843 z "},"Ē":{"ha":889,"x_min":0,"x_max":0,"o":"m 764 1143 l 181 1143 l 181 1056 l 764 1056 z m 818 843 l 818 972 l 113 972 l 113 0 l 818 0 l 818 129 l 258 129 l 258 436 l 785 436 l 785 558 l 258 558 l 258 843 z "},"Ę":{"ha":889,"x_min":0,"x_max":0,"o":"m 818 843 l 818 972 l 113 972 l 113 0 l 668 0 b 594 -129 629 -31 594 -87 b 717 -235 594 -190 639 -235 b 807 -206 753 -235 788 -225 l 807 -144 b 747 -171 794 -164 776 -171 b 699 -111 717 -171 699 -140 b 750 0 699 -75 713 -40 l 818 0 l 818 129 l 258 129 l 258 436 l 785 436 l 785 558 l 258 558 l 258 843 z "},"F":{"ha":861,"x_min":0,"x_max":0,"o":"m 818 843 l 818 972 l 113 972 l 113 0 l 265 0 l 265 426 l 790 426 l 790 556 l 265 556 l 265 843 z "},"G":{"ha":1065,"x_min":0,"x_max":0,"o":"m 579 417 l 842 417 b 553 103 842 232 717 103 b 211 482 363 103 211 258 b 540 869 211 707 354 869 b 835 613 704 869 817 764 l 983 613 b 547 989 968 831 792 989 b 58 481 274 989 58 775 b 513 -17 58 192 265 -17 b 868 267 683 -17 818 96 l 908 0 l 983 0 l 983 526 l 579 526 z "},"Ğ":{"ha":1065,"x_min":0,"x_max":0,"o":"m 538 1056 b 788 1286 683 1056 785 1150 l 683 1286 b 538 1136 682 1196 624 1136 b 392 1286 451 1136 393 1196 l 288 1286 b 538 1056 292 1150 393 1056 z m 579 417 l 842 417 b 553 103 842 232 717 103 b 211 482 363 103 211 258 b 540 869 211 707 354 869 b 835 613 704 869 817 764 l 983 613 b 547 989 968 831 792 989 b 58 481 274 989 58 775 b 513 -17 58 192 265 -17 b 868 267 683 -17 818 96 l 908 0 l 983 0 l 983 526 l 579 526 z "},"Ģ":{"ha":1065,"x_min":0,"x_max":0,"o":"m 579 417 l 842 417 b 553 103 842 232 717 103 b 211 482 363 103 211 258 b 540 869 211 707 354 869 b 835 613 704 869 817 764 l 983 613 b 547 989 968 831 792 989 b 58 481 274 989 58 775 b 513 -17 58 192 265 -17 b 868 267 683 -17 818 96 l 908 0 l 983 0 l 983 526 l 579 526 z m 467 -171 l 528 -171 b 478 -249 528 -211 515 -249 l 478 -283 b 582 -171 525 -283 582 -246 l 582 -56 l 467 -56 z "},"Ġ":{"ha":1065,"x_min":0,"x_max":0,"o":"m 543 1068 b 635 1160 594 1068 635 1108 b 543 1249 635 1210 594 1249 b 453 1160 493 1249 453 1210 b 543 1068 453 1108 493 1068 z m 579 417 l 842 417 b 553 103 842 232 717 103 b 211 482 363 103 211 258 b 540 869 211 707 354 869 b 835 613 704 869 817 764 l 983 613 b 547 989 968 831 792 989 b 58 481 274 989 58 775 b 513 -17 58 192 265 -17 b 868 267 683 -17 818 96 l 908 0 l 983 0 l 983 526 l 579 526 z "},"H":{"ha":1039,"x_min":0,"x_max":0,"o":"m 779 972 l 779 564 l 258 564 l 258 972 l 113 972 l 113 0 l 258 0 l 258 436 l 779 436 l 779 0 l 925 0 l 925 972 z "},"Ħ":{"ha":1039,"x_min":0,"x_max":0,"o":"m 996 815 l 925 815 l 925 972 l 779 972 l 779 815 l 258 815 l 258 972 l 113 972 l 113 815 l 35 815 l 35 728 l 113 728 l 113 0 l 258 0 l 258 436 l 779 436 l 779 0 l 925 0 l 925 728 l 996 728 z m 779 564 l 258 564 l 258 728 l 779 728 z "},"I":{"ha":368,"x_min":0,"x_max":0,"o":"m 113 972 l 113 0 l 256 0 l 256 972 z "},"Í":{"ha":368,"x_min":0,"x_max":0,"o":"m 292 1285 l 106 1056 l 214 1056 l 471 1285 z m 113 972 l 113 0 l 256 0 l 256 972 z "},"Î":{"ha":368,"x_min":0,"x_max":0,"o":"m 271 1285 l 101 1285 l -87 1056 l 38 1056 l 186 1210 l 335 1056 l 460 1056 z m 113 0 l 256 0 l 256 972 l 113 972 z "},"Ï":{"ha":368,"x_min":0,"x_max":0,"o":"m -65 1161 b 21 1075 -65 1113 -29 1075 b 108 1161 69 1075 108 1113 b 21 1250 108 1210 69 1250 b -65 1161 -29 1250 -65 1210 z m 269 1161 b 357 1075 269 1113 307 1075 b 444 1161 406 1075 444 1113 b 357 1250 444 1210 406 1250 b 269 1161 307 1250 269 1210 z m 113 972 l 113 0 l 256 0 l 256 972 z "},"İ":{"ha":368,"x_min":0,"x_max":0,"o":"m 99 1150 b 189 1058 99 1099 139 1058 b 281 1150 240 1058 281 1099 b 189 1239 281 1200 240 1239 b 99 1150 139 1239 99 1200 z m 113 972 l 113 0 l 256 0 l 256 972 z "},"Ì":{"ha":368,"x_min":0,"x_max":0,"o":"m 86 1271 l -93 1271 l 164 1042 l 272 1042 z m 113 972 l 113 0 l 256 0 l 256 972 z "},"Ī":{"ha":368,"x_min":0,"x_max":0,"o":"m -103 1143 l -103 1056 l 481 1056 l 481 1143 z m 113 972 l 113 0 l 256 0 l 256 972 z "},"Į":{"ha":368,"x_min":0,"x_max":0,"o":"m 231 -171 b 182 -111 199 -171 182 -140 b 235 0 182 -75 194 -40 l 256 0 l 256 972 l 113 972 l 113 0 l 144 0 b 78 -129 106 -37 78 -87 b 199 -235 78 -190 122 -235 b 290 -206 235 -235 269 -225 l 290 -144 b 231 -171 276 -164 258 -171 z "},"J":{"ha":810,"x_min":0,"x_max":0,"o":"m 558 972 l 558 329 b 374 104 558 176 479 104 b 176 396 247 104 176 207 l 31 396 b 374 -17 31 126 157 -17 b 704 329 572 -17 703 93 l 704 972 z "},"K":{"ha":940,"x_min":0,"x_max":0,"o":"m 757 0 l 943 0 l 476 560 l 935 972 l 740 972 l 258 538 l 258 972 l 113 972 l 113 0 l 258 0 l 258 364 l 376 471 z "},"Ķ":{"ha":940,"x_min":0,"x_max":0,"o":"m 476 560 l 935 972 l 740 972 l 258 538 l 258 972 l 113 972 l 113 0 l 258 0 l 258 364 l 376 471 l 757 0 l 943 0 z m 413 -171 l 474 -171 b 424 -249 474 -211 461 -249 l 424 -283 b 528 -171 471 -283 528 -246 l 528 -56 l 413 -56 z "},"L":{"ha":776,"x_min":0,"x_max":0,"o":"m 258 129 l 258 972 l 113 972 l 113 0 l 761 0 l 761 129 z "},"Ĺ":{"ha":776,"x_min":0,"x_max":0,"o":"m 476 1285 l 297 1285 l 111 1056 l 219 1056 z m 258 129 l 258 972 l 113 972 l 113 0 l 761 0 l 761 129 z "},"Ľ":{"ha":776,"x_min":0,"x_max":0,"o":"m 258 129 l 258 972 l 113 972 l 113 0 l 761 0 l 761 129 z m 368 -171 l 429 -171 b 379 -249 429 -211 417 -249 l 379 -283 b 483 -171 426 -283 483 -246 l 483 -56 l 368 -56 z "},"Ļ":{"ha":776,"x_min":0,"x_max":0,"o":"m 258 129 l 258 972 l 113 972 l 113 0 l 761 0 l 761 129 z m 368 -171 l 429 -171 b 379 -249 429 -211 417 -249 l 379 -283 b 483 -171 426 -283 483 -246 l 483 -56 l 368 -56 z "},"Ŀ":{"ha":778,"x_min":0,"x_max":0,"o":"m 258 129 l 258 972 l 113 972 l 113 0 l 761 0 l 761 129 z m 558 396 b 656 493 611 396 656 439 b 558 590 656 547 611 590 b 461 493 504 590 461 547 b 558 396 461 439 504 396 z "},"Ł":{"ha":832,"x_min":0,"x_max":0,"o":"m 315 129 l 315 336 l 617 481 l 617 613 l 315 469 l 315 972 l 169 972 l 169 399 l 49 342 l 49 208 l 169 267 l 169 0 l 817 0 l 817 129 z "},"M":{"ha":1278,"x_min":0,"x_max":0,"o":"m 1165 972 l 919 972 l 636 86 l 364 972 l 113 972 l 113 0 l 258 0 l 258 864 l 524 0 l 747 0 l 1019 867 l 1019 0 l 1165 0 z "},"N":{"ha":1072,"x_min":0,"x_max":0,"o":"m 814 972 l 814 103 l 358 972 l 113 972 l 113 0 l 258 0 l 258 869 l 715 0 l 960 0 l 960 972 z "},"Ń":{"ha":1072,"x_min":0,"x_max":0,"o":"m 818 1285 l 639 1285 l 453 1056 l 561 1056 z m 814 972 l 814 103 l 358 972 l 113 972 l 113 0 l 258 0 l 258 869 l 715 0 l 960 0 l 960 972 z "},"Ň":{"ha":1072,"x_min":0,"x_max":0,"o":"m 453 1056 l 621 1056 l 810 1285 l 686 1285 l 538 1131 l 388 1285 l 264 1285 z m 814 972 l 814 103 l 358 972 l 113 972 l 113 0 l 258 0 l 258 869 l 715 0 l 960 0 l 960 972 z "},"Ņ":{"ha":1072,"x_min":0,"x_max":0,"o":"m 814 972 l 814 103 l 358 972 l 113 972 l 113 0 l 258 0 l 258 869 l 715 0 l 960 0 l 960 972 z m 474 -171 l 535 -171 b 485 -249 535 -211 522 -249 l 485 -283 b 589 -171 532 -283 589 -246 l 589 -56 l 474 -56 z "},"Ŋ":{"ha":1072,"x_min":0,"x_max":0,"o":"m 593 -206 b 740 -254 629 -237 682 -254 b 960 0 886 -254 960 -136 l 960 972 l 814 972 l 814 235 l 317 972 l 113 972 l 113 0 l 258 0 l 258 824 l 814 0 b 713 -137 814 -97 778 -137 b 593 -90 660 -137 622 -118 z "},"Ñ":{"ha":1072,"x_min":0,"x_max":0,"o":"m 422 1163 b 663 1069 497 1163 578 1069 b 825 1242 731 1069 825 1118 l 751 1242 b 671 1164 747 1204 721 1164 b 431 1258 606 1164 525 1258 b 264 1086 351 1258 264 1200 l 339 1086 b 422 1163 344 1126 376 1163 z m 814 972 l 814 103 l 358 972 l 113 972 l 113 0 l 258 0 l 258 869 l 715 0 l 960 0 l 960 972 z "},"O":{"ha":1060,"x_min":0,"x_max":0,"o":"m 60 489 b 531 -17 60 193 249 -17 b 1000 489 810 -17 1000 193 b 531 988 1000 782 810 988 b 60 489 249 988 60 782 z m 856 486 b 531 107 856 271 729 107 b 206 486 329 107 206 271 b 531 864 206 701 329 864 b 856 486 729 864 856 701 z "},"Ó":{"ha":1060,"x_min":0,"x_max":0,"o":"m 633 1285 l 447 1056 l 556 1056 l 813 1285 z m 60 489 b 531 -17 60 193 249 -17 b 1000 489 810 -17 1000 193 b 531 988 1000 782 810 988 b 60 489 249 988 60 782 z m 856 486 b 531 107 856 271 729 107 b 206 486 329 107 206 271 b 531 864 206 701 329 864 b 856 486 729 864 856 701 z "},"Ô":{"ha":1060,"x_min":0,"x_max":0,"o":"m 528 1210 l 676 1056 l 801 1056 l 613 1285 l 443 1285 l 254 1056 l 379 1056 z m 531 988 b 60 489 249 988 60 782 b 531 -17 60 193 249 -17 b 1000 489 810 -17 1000 193 b 531 988 1000 782 810 988 z m 531 107 b 206 486 329 107 206 271 b 531 864 206 701 329 864 b 856 486 729 864 856 701 b 531 107 856 271 729 107 z "},"Ö":{"ha":1060,"x_min":0,"x_max":0,"o":"m 276 1161 b 363 1075 276 1113 313 1075 b 450 1161 411 1075 450 1113 b 363 1250 450 1210 411 1250 b 276 1161 313 1250 276 1210 z m 611 1161 b 699 1075 611 1113 649 1075 b 786 1161 747 1075 786 1113 b 699 1250 786 1210 747 1250 b 611 1161 649 1250 611 1210 z m 60 489 b 531 -17 60 193 249 -17 b 1000 489 810 -17 1000 193 b 531 988 1000 782 810 988 b 60 489 249 988 60 782 z m 856 486 b 531 107 856 271 729 107 b 206 486 329 107 206 271 b 531 864 206 701 329 864 b 856 486 729 864 856 701 z "},"Ò":{"ha":1060,"x_min":0,"x_max":0,"o":"m 428 1271 l 249 1271 l 506 1042 l 614 1042 z m 60 489 b 531 -17 60 193 249 -17 b 1000 489 810 -17 1000 193 b 531 988 1000 782 810 988 b 60 489 249 988 60 782 z m 856 486 b 531 107 856 271 729 107 b 206 486 329 107 206 271 b 531 864 206 701 329 864 b 856 486 729 864 856 701 z "},"Ő":{"ha":1060,"x_min":0,"x_max":0,"o":"m 479 1285 l 293 1056 l 401 1056 l 658 1285 z m 753 1285 l 568 1056 l 675 1056 l 933 1285 z m 60 489 b 531 -17 60 193 249 -17 b 1000 489 810 -17 1000 193 b 531 988 1000 782 810 988 b 60 489 249 988 60 782 z m 856 486 b 531 107 856 271 729 107 b 206 486 329 107 206 271 b 531 864 206 701 329 864 b 856 486 729 864 856 701 z "},"Ō":{"ha":1060,"x_min":0,"x_max":0,"o":"m 239 1143 l 239 1056 l 822 1056 l 822 1143 z m 60 489 b 531 -17 60 193 249 -17 b 1000 489 810 -17 1000 193 b 531 988 1000 782 810 988 b 60 489 249 988 60 782 z m 856 486 b 531 107 856 271 729 107 b 206 486 329 107 206 271 b 531 864 206 701 329 864 b 856 486 729 864 856 701 z "},"Ø":{"ha":1060,"x_min":0,"x_max":0,"o":"m 860 860 l 1000 1056 l 876 1056 l 781 921 b 531 988 710 964 625 988 b 60 489 249 988 60 782 b 201 114 60 335 111 203 l 60 -83 l 185 -83 l 281 50 b 531 -17 351 7 435 -17 b 1000 489 810 -17 1000 193 b 860 860 1000 642 949 771 z m 206 486 b 531 864 206 701 329 864 b 703 814 597 864 656 846 l 283 228 b 206 486 233 294 206 385 z m 531 107 b 357 157 464 107 406 125 l 776 744 b 856 486 828 678 856 588 b 531 107 856 271 729 107 z "},"Õ":{"ha":1060,"x_min":0,"x_max":0,"o":"m 418 1163 b 658 1069 493 1163 574 1069 b 821 1242 726 1069 821 1118 l 747 1242 b 667 1164 743 1204 717 1164 b 426 1258 601 1164 521 1258 b 260 1086 347 1258 260 1200 l 335 1086 b 418 1163 340 1126 372 1163 z m 60 489 b 531 -17 60 193 249 -17 b 1000 489 810 -17 1000 193 b 531 988 1000 782 810 988 b 60 489 249 988 60 782 z m 856 486 b 531 107 856 271 729 107 b 206 486 329 107 206 271 b 531 864 206 701 329 864 b 856 486 729 864 856 701 z "},"Œ":{"ha":1635,"x_min":0,"x_max":0,"o":"m 1564 843 l 1564 972 l 858 972 l 858 860 b 531 988 776 940 664 988 b 60 489 249 988 60 782 b 531 -17 60 193 249 -17 b 858 113 664 -17 776 31 l 858 0 l 1564 0 l 1564 129 l 1004 129 l 1004 436 l 1529 436 l 1529 558 l 1004 558 l 1004 843 z m 531 107 b 206 486 329 107 206 271 b 531 864 206 701 329 864 b 856 486 729 864 856 701 b 531 107 856 271 729 107 z "},"P":{"ha":899,"x_min":0,"x_max":0,"o":"m 569 972 l 113 972 l 113 0 l 258 0 l 258 397 l 585 397 b 864 693 740 397 864 510 b 569 972 864 864 736 972 z m 547 510 l 258 510 l 258 860 l 542 860 b 719 693 647 860 719 797 b 547 510 719 578 650 510 z "},"Þ":{"ha":915,"x_min":0,"x_max":0,"o":"m 569 794 l 258 794 l 258 972 l 113 972 l 113 0 l 258 0 l 258 219 l 585 219 b 864 515 740 219 864 332 b 569 794 864 686 736 794 z m 547 332 l 258 332 l 258 683 l 542 683 b 719 515 647 683 719 621 b 547 332 719 400 650 332 z "},"Q":{"ha":1061,"x_min":0,"x_max":0,"o":"m 1004 -56 l 850 106 b 1000 490 944 196 1000 331 b 531 988 1000 782 810 988 b 60 490 249 988 60 782 b 531 -15 60 193 249 -15 b 746 33 610 -15 683 1 l 828 -56 z m 531 108 b 206 488 329 108 206 271 b 531 865 206 701 329 865 b 856 488 729 865 856 701 b 757 204 856 374 819 274 l 576 394 l 410 394 l 653 132 b 531 108 617 117 575 108 z "},"R":{"ha":976,"x_min":0,"x_max":0,"o":"m 690 431 b 894 693 793 449 894 514 b 590 972 894 899 753 972 l 113 972 l 113 1 l 258 1 l 258 399 l 547 399 b 765 0 735 399 704 158 l 932 0 b 690 431 843 167 856 417 z m 258 517 l 258 853 l 571 853 b 749 685 699 853 749 786 b 571 517 749 582 699 517 z "},"Ŕ":{"ha":976,"x_min":0,"x_max":0,"o":"m 786 1285 l 607 1285 l 421 1056 l 529 1056 z m 690 431 b 894 693 793 449 894 514 b 590 972 894 899 753 972 l 113 972 l 113 1 l 258 1 l 258 399 l 547 399 b 765 0 735 399 704 158 l 932 0 b 690 431 843 167 856 417 z m 258 517 l 258 853 l 571 853 b 749 685 699 853 749 786 b 571 517 749 582 699 517 z "},"Ř":{"ha":976,"x_min":0,"x_max":0,"o":"m 419 1056 l 588 1056 l 776 1285 l 653 1285 l 504 1131 l 354 1285 l 231 1285 z m 690 431 b 894 693 793 449 894 514 b 590 972 894 899 753 972 l 113 972 l 113 1 l 258 1 l 258 399 l 547 399 b 765 0 735 399 704 158 l 932 0 b 690 431 843 167 856 417 z m 258 517 l 258 853 l 571 853 b 749 685 699 853 749 786 b 571 517 749 582 699 517 z "},"Ŗ":{"ha":976,"x_min":0,"x_max":0,"o":"m 690 431 b 894 693 793 449 894 514 b 590 972 894 899 753 972 l 113 972 l 113 1 l 258 1 l 258 399 l 547 399 b 765 0 735 399 704 158 l 932 0 b 690 431 843 167 856 417 z m 258 517 l 258 853 l 571 853 b 749 685 699 853 749 786 b 571 517 749 582 699 517 z m 442 -171 l 503 -171 b 453 -249 503 -211 490 -249 l 453 -283 b 557 -171 500 -283 557 -246 l 557 -56 l 442 -56 z "},"S":{"ha":913,"x_min":0,"x_max":0,"o":"m 56 381 b 475 -17 56 132 218 -17 b 860 267 708 -17 860 100 b 478 561 860 467 651 524 b 226 713 324 596 226 619 b 447 871 226 794 304 871 b 679 625 608 871 679 785 l 825 625 b 444 989 825 811 717 989 b 81 700 200 989 81 847 b 443 426 81 508 282 461 b 713 260 617 389 713 361 b 479 101 713 154 597 101 b 201 381 343 101 201 172 z "},"Ś":{"ha":913,"x_min":0,"x_max":0,"o":"m 561 1285 l 375 1056 l 483 1056 l 740 1285 z m 56 381 b 475 -17 56 132 218 -17 b 860 267 708 -17 860 100 b 478 561 860 467 651 524 b 226 713 324 596 226 619 b 447 871 226 794 304 871 b 679 625 608 871 679 785 l 825 625 b 444 989 825 811 717 989 b 81 700 200 989 81 847 b 443 426 81 508 282 461 b 713 260 617 389 713 361 b 479 101 713 154 597 101 b 201 381 343 101 201 172 z "},"Š":{"ha":913,"x_min":0,"x_max":0,"o":"m 374 1056 l 542 1056 l 731 1285 l 607 1285 l 458 1131 l 308 1285 l 185 1285 z m 478 561 b 226 713 324 596 226 619 b 447 871 226 794 304 871 b 679 625 608 871 679 785 l 825 625 b 444 989 825 811 717 989 b 81 700 200 989 81 847 b 443 426 81 508 282 461 b 713 260 617 389 713 361 b 479 101 713 154 597 101 b 201 381 343 101 201 172 l 56 381 b 475 -17 56 132 218 -17 b 860 267 708 -17 860 100 b 478 561 860 467 651 524 z "},"Ş":{"ha":913,"x_min":0,"x_max":0,"o":"m 860 267 b 478 561 860 467 651 524 b 226 713 324 596 226 619 b 447 871 226 794 304 871 b 679 625 608 871 679 785 l 825 625 b 444 989 825 811 717 989 b 81 700 200 989 81 847 b 443 426 81 508 282 461 b 713 260 617 389 713 361 b 479 101 713 154 597 101 b 201 381 343 101 201 172 l 56 381 b 390 -11 56 161 183 19 l 322 -143 l 401 -143 b 478 -110 421 -121 454 -110 b 528 -160 508 -110 528 -132 b 456 -221 528 -196 496 -221 b 376 -181 431 -221 396 -208 l 306 -224 b 450 -292 328 -256 381 -292 b 617 -156 543 -292 617 -233 b 511 -58 617 -99 571 -58 b 429 -90 479 -58 451 -74 l 496 -17 b 860 267 717 -10 860 106 z "},"Ș":{"ha":913,"x_min":0,"x_max":0,"o":"m 478 561 b 226 713 324 596 226 619 b 447 871 226 794 304 871 b 679 625 608 871 679 785 l 825 625 b 444 989 825 811 717 989 b 81 700 200 989 81 847 b 443 426 81 508 282 461 b 713 260 617 389 713 361 b 479 101 713 154 597 101 b 201 381 343 101 201 172 l 56 381 b 475 -17 56 132 218 -17 b 860 267 708 -17 860 100 b 478 561 860 467 651 524 z m 396 -171 l 457 -171 b 407 -249 457 -211 444 -249 l 407 -283 b 511 -171 454 -283 511 -246 l 511 -56 l 396 -56 z "},"T":{"ha":850,"x_min":0,"x_max":0,"o":"m 835 972 l 15 972 l 15 843 l 353 843 l 353 0 l 499 0 l 499 843 l 835 843 z "},"Ŧ":{"ha":850,"x_min":0,"x_max":0,"o":"m 835 843 l 835 972 l 15 972 l 15 843 l 353 843 l 353 550 l 157 550 l 157 461 l 353 461 l 353 0 l 499 0 l 499 461 l 693 461 l 693 550 l 499 550 l 499 843 z "},"Ť":{"ha":850,"x_min":0,"x_max":0,"o":"m 342 1056 l 510 1056 l 699 1285 l 575 1285 l 426 1131 l 276 1285 l 153 1285 z m 835 972 l 15 972 l 15 843 l 353 843 l 353 0 l 499 0 l 499 843 l 835 843 z "},"Ţ":{"ha":850,"x_min":0,"x_max":0,"o":"m 499 0 l 499 843 l 835 843 l 835 972 l 15 972 l 15 843 l 353 843 l 353 0 l 397 0 l 306 -143 l 385 -143 b 461 -110 404 -121 438 -110 b 511 -160 492 -110 511 -132 b 438 -221 511 -196 479 -221 b 360 -181 414 -221 379 -208 l 289 -224 b 433 -292 310 -256 364 -292 b 600 -156 526 -292 600 -233 b 497 -58 600 -99 551 -58 b 415 -89 468 -58 436 -71 l 472 0 z "},"Ț":{"ha":850,"x_min":0,"x_max":0,"o":"m 835 972 l 15 972 l 15 843 l 353 843 l 353 0 l 499 0 l 499 843 l 835 843 z m 367 -171 l 428 -171 b 378 -249 428 -211 415 -249 l 378 -283 b 482 -171 425 -283 482 -246 l 482 -56 l 367 -56 z "},"U":{"ha":1004,"x_min":0,"x_max":0,"o":"m 104 342 b 507 -17 104 124 289 -17 b 900 342 722 -17 900 124 l 900 972 l 756 972 l 756 350 b 507 104 756 201 644 104 b 250 350 369 104 253 200 l 250 972 l 104 972 z "},"Ú":{"ha":1004,"x_min":0,"x_max":0,"o":"m 601 1285 l 415 1056 l 524 1056 l 781 1285 z m 104 342 b 507 -17 104 124 289 -17 b 900 342 722 -17 900 124 l 900 972 l 756 972 l 756 350 b 507 104 756 201 644 104 b 250 350 369 104 253 200 l 250 972 l 104 972 z "},"Û":{"ha":1004,"x_min":0,"x_max":0,"o":"m 496 1210 l 644 1056 l 769 1056 l 581 1285 l 411 1285 l 222 1056 l 347 1056 z m 756 972 l 756 350 b 507 104 756 201 644 104 b 250 350 369 104 253 200 l 250 972 l 104 972 l 104 342 b 507 -17 104 124 289 -17 b 900 342 722 -17 900 124 l 900 972 z "},"Ü":{"ha":1004,"x_min":0,"x_max":0,"o":"m 244 1161 b 331 1075 244 1113 281 1075 b 418 1161 379 1075 418 1113 b 331 1250 418 1210 379 1250 b 244 1161 281 1250 244 1210 z m 579 1161 b 667 1075 579 1113 617 1075 b 754 1161 715 1075 754 1113 b 667 1250 754 1210 715 1250 b 579 1161 617 1250 579 1210 z m 104 342 b 507 -17 104 124 289 -17 b 900 342 722 -17 900 124 l 900 972 l 756 972 l 756 350 b 507 104 756 201 644 104 b 250 350 369 104 253 200 l 250 972 l 104 972 z "},"Ù":{"ha":1004,"x_min":0,"x_max":0,"o":"m 396 1271 l 217 1271 l 474 1042 l 582 1042 z m 104 342 b 507 -17 104 124 289 -17 b 900 342 722 -17 900 124 l 900 972 l 756 972 l 756 350 b 507 104 756 201 644 104 b 250 350 369 104 253 200 l 250 972 l 104 972 z "},"Ű":{"ha":1004,"x_min":0,"x_max":0,"o":"m 447 1285 l 261 1056 l 369 1056 l 626 1285 z m 721 1285 l 536 1056 l 643 1056 l 901 1285 z m 104 342 b 507 -17 104 124 289 -17 b 900 342 722 -17 900 124 l 900 972 l 756 972 l 756 350 b 507 104 756 201 644 104 b 250 350 369 104 253 200 l 250 972 l 104 972 z "},"Ū":{"ha":1004,"x_min":0,"x_max":0,"o":"m 207 1143 l 207 1056 l 790 1056 l 790 1143 z m 104 342 b 507 -17 104 124 289 -17 b 900 342 722 -17 900 124 l 900 972 l 756 972 l 756 350 b 507 104 756 201 644 104 b 250 350 369 104 253 200 l 250 972 l 104 972 z "},"Ų":{"ha":1004,"x_min":0,"x_max":0,"o":"m 756 972 l 756 350 b 507 104 756 201 644 104 b 250 350 369 104 253 200 l 250 972 l 104 972 l 104 342 b 497 -17 104 126 283 -12 b 443 -129 467 -49 443 -93 b 564 -235 443 -189 486 -235 b 656 -204 600 -235 635 -225 l 656 -144 b 596 -171 642 -162 624 -171 b 546 -110 564 -171 546 -140 b 589 -10 546 -76 557 -46 b 900 342 765 21 900 151 l 900 972 z "},"Ů":{"ha":1004,"x_min":0,"x_max":0,"o":"m 326 1222 b 499 1050 326 1128 404 1050 b 671 1222 593 1050 671 1128 b 499 1394 671 1317 593 1394 b 326 1222 404 1394 326 1317 z m 596 1222 b 499 1125 596 1168 553 1125 b 401 1222 444 1125 401 1168 b 499 1319 401 1276 444 1319 b 596 1222 553 1319 596 1276 z m 104 342 b 507 -17 104 124 289 -17 b 900 342 722 -17 900 124 l 900 972 l 756 972 l 756 350 b 507 104 756 201 644 104 b 250 350 369 104 253 200 l 250 972 l 104 972 z "},"V":{"ha":935,"x_min":0,"x_max":0,"o":"m 769 972 l 468 97 l 165 972 l 17 972 l 353 0 l 583 0 l 918 972 z "},"W":{"ha":1375,"x_min":0,"x_max":0,"o":"m 1206 972 l 988 107 l 789 972 l 586 972 l 388 107 l 169 972 l 26 972 l 271 0 l 493 0 l 688 846 l 882 0 l 1104 0 l 1350 972 z "},"Ẃ":{"ha":1375,"x_min":0,"x_max":0,"o":"m 969 1285 l 790 1285 l 604 1056 l 713 1056 z m 1206 972 l 988 107 l 789 972 l 586 972 l 388 107 l 169 972 l 26 972 l 271 0 l 493 0 l 688 846 l 882 0 l 1104 0 l 1350 972 z "},"Ŵ":{"ha":1375,"x_min":0,"x_max":0,"o":"m 685 1210 l 833 1056 l 958 1056 l 769 1285 l 600 1285 l 411 1056 l 536 1056 z m 1206 972 l 988 107 l 789 972 l 586 972 l 388 107 l 169 972 l 26 972 l 271 0 l 493 0 l 688 846 l 882 0 l 1104 0 l 1350 972 z "},"Ẅ":{"ha":1375,"x_min":0,"x_max":0,"o":"m 519 1075 b 607 1161 568 1075 607 1113 b 519 1250 607 1210 568 1250 b 433 1161 469 1250 433 1210 b 519 1075 433 1113 469 1075 z m 856 1075 b 943 1161 904 1075 943 1113 b 856 1250 943 1210 904 1250 b 768 1161 806 1250 768 1210 b 856 1075 768 1113 806 1075 z m 1206 972 l 988 107 l 789 972 l 586 972 l 388 107 l 169 972 l 26 972 l 271 0 l 493 0 l 688 846 l 882 0 l 1104 0 l 1350 972 z "},"Ẁ":{"ha":1375,"x_min":0,"x_max":0,"o":"m 769 1042 l 583 1271 l 404 1271 l 661 1042 z m 1206 972 l 988 107 l 789 972 l 586 972 l 388 107 l 169 972 l 26 972 l 271 0 l 493 0 l 688 846 l 882 0 l 1104 0 l 1350 972 z "},"X":{"ha":931,"x_min":0,"x_max":0,"o":"m 929 0 l 553 492 l 921 972 l 746 972 l 465 606 l 185 972 l 10 972 l 378 492 l 3 0 l 176 0 l 465 378 l 754 0 z "},"Y":{"ha":990,"x_min":0,"x_max":0,"o":"m 976 972 l 796 972 l 496 546 l 193 972 l 11 972 l 419 425 l 419 0 l 571 0 l 571 425 z "},"Ý":{"ha":990,"x_min":0,"x_max":0,"o":"m 603 1285 l 417 1056 l 525 1056 l 782 1285 z m 976 972 l 796 972 l 496 546 l 193 972 l 11 972 l 419 425 l 419 0 l 571 0 l 571 425 z "},"Ŷ":{"ha":990,"x_min":0,"x_max":0,"o":"m 497 1210 l 646 1056 l 771 1056 l 582 1285 l 413 1285 l 224 1056 l 349 1056 z m 796 972 l 496 546 l 193 972 l 11 972 l 419 425 l 419 0 l 571 0 l 571 425 l 976 972 z "},"Ÿ":{"ha":990,"x_min":0,"x_max":0,"o":"m 246 1161 b 332 1075 246 1113 282 1075 b 419 1161 381 1075 419 1113 b 332 1250 419 1210 381 1250 b 246 1161 282 1250 246 1210 z m 581 1161 b 668 1075 581 1113 618 1075 b 756 1161 717 1075 756 1113 b 668 1250 756 1210 717 1250 b 581 1161 618 1250 581 1210 z m 976 972 l 796 972 l 496 546 l 193 972 l 11 972 l 419 425 l 419 0 l 571 0 l 571 425 z "},"Ỳ":{"ha":990,"x_min":0,"x_max":0,"o":"m 396 1271 l 217 1271 l 474 1042 l 582 1042 z m 976 972 l 796 972 l 496 546 l 193 972 l 11 972 l 419 425 l 419 0 l 571 0 l 571 425 z "},"Z":{"ha":907,"x_min":0,"x_max":0,"o":"m 200 124 l 850 806 l 850 972 l 56 972 l 56 850 l 713 850 l 57 167 l 57 0 l 851 0 l 851 124 z "},"Ź":{"ha":907,"x_min":0,"x_max":0,"o":"m 736 1285 l 557 1285 l 371 1056 l 479 1056 z m 200 124 l 850 806 l 850 972 l 56 972 l 56 850 l 713 850 l 57 167 l 57 0 l 851 0 l 851 124 z "},"Ž":{"ha":907,"x_min":0,"x_max":0,"o":"m 369 1056 l 538 1056 l 726 1285 l 603 1285 l 454 1131 l 304 1285 l 181 1285 z m 200 124 l 850 806 l 850 972 l 56 972 l 56 850 l 713 850 l 57 167 l 57 0 l 851 0 l 851 124 z "},"Ż":{"ha":907,"x_min":0,"x_max":0,"o":"m 453 1058 b 544 1150 504 1058 544 1099 b 453 1239 544 1200 504 1239 b 363 1150 403 1239 363 1200 b 453 1058 363 1099 403 1058 z m 200 124 l 850 806 l 850 972 l 56 972 l 56 850 l 713 850 l 57 167 l 57 0 l 851 0 l 851 124 z "},"a":{"ha":864,"x_min":0,"x_max":0,"o":"m 639 729 l 639 589 b 382 746 585 686 494 746 b 51 368 176 746 51 588 b 388 -17 51 146 181 -17 b 639 138 499 -17 586 42 l 639 0 l 771 0 l 771 729 z m 411 94 b 190 367 274 94 190 215 b 413 633 190 517 274 633 b 638 368 539 633 638 536 b 411 94 638 203 540 94 z "},"á":{"ha":864,"x_min":0,"x_max":0,"o":"m 697 1028 l 518 1028 l 332 799 l 440 799 z m 639 729 l 639 589 b 382 746 585 686 494 746 b 51 368 176 746 51 588 b 388 -17 51 146 181 -17 b 639 138 499 -17 586 42 l 639 0 l 771 0 l 771 729 z m 411 94 b 190 367 274 94 190 215 b 413 633 190 517 274 633 b 638 368 539 633 638 536 b 411 94 638 203 540 94 z "},"ă":{"ha":851,"x_min":0,"x_max":0,"o":"m 415 797 b 664 1028 561 797 661 890 l 561 1028 b 415 878 560 936 499 878 b 269 1028 331 878 271 938 l 167 1028 b 415 797 169 890 269 797 z m 639 729 l 639 589 b 382 746 585 686 494 746 b 51 368 176 746 51 588 b 388 -17 51 146 181 -17 b 639 138 499 -17 586 42 l 639 0 l 771 0 l 771 729 z m 411 94 b 190 367 274 94 190 215 b 413 633 190 517 274 633 b 638 368 539 633 638 536 b 411 94 638 203 540 94 z "},"â":{"ha":864,"x_min":0,"x_max":0,"o":"m 413 953 l 561 799 l 685 799 l 496 1028 l 328 1028 l 139 799 l 264 799 z m 639 729 l 639 589 b 382 746 585 686 494 746 b 51 368 176 746 51 588 b 388 -17 51 146 181 -17 b 639 138 499 -17 586 42 l 639 0 l 771 0 l 771 729 z m 411 94 b 190 367 274 94 190 215 b 413 633 190 517 274 633 b 638 368 539 633 638 536 b 411 94 638 203 540 94 z "},"ä":{"ha":864,"x_min":0,"x_max":0,"o":"m 247 822 b 335 908 296 822 335 858 b 247 997 335 957 296 997 b 161 908 197 997 161 957 b 247 822 161 858 197 822 z m 583 822 b 671 908 632 822 671 858 b 583 997 671 957 632 997 b 496 908 533 997 496 957 b 583 822 496 858 533 822 z m 639 729 l 639 589 b 382 746 585 686 494 746 b 51 368 176 746 51 588 b 388 -17 51 146 181 -17 b 639 138 499 -17 586 42 l 639 0 l 771 0 l 771 729 z m 411 94 b 190 367 274 94 190 215 b 413 633 190 517 274 633 b 638 368 539 633 638 536 b 411 94 638 203 540 94 z "},"à":{"ha":864,"x_min":0,"x_max":0,"o":"m 499 799 l 313 1028 l 133 1028 l 390 799 z m 639 729 l 639 589 b 382 746 585 686 494 746 b 51 368 176 746 51 588 b 388 -17 51 146 181 -17 b 639 138 499 -17 586 42 l 639 0 l 771 0 l 771 729 z m 411 94 b 190 367 274 94 190 215 b 413 633 190 517 274 633 b 638 368 539 633 638 536 b 411 94 638 203 540 94 z "},"ā":{"ha":864,"x_min":0,"x_max":0,"o":"m 707 886 l 124 886 l 124 799 l 707 799 z m 639 729 l 639 589 b 382 746 585 686 494 746 b 51 368 176 746 51 588 b 388 -17 51 146 181 -17 b 639 138 499 -17 586 42 l 639 0 l 771 0 l 771 729 z m 411 94 b 190 367 274 94 190 215 b 413 633 190 517 274 633 b 638 368 539 633 638 536 b 411 94 638 203 540 94 z "},"ą":{"ha":818,"x_min":0,"x_max":0,"o":"m 722 -171 b 674 -111 692 -171 674 -140 b 726 0 674 -75 686 -40 l 771 0 l 771 729 l 639 729 l 639 589 b 382 746 585 686 494 746 b 51 368 176 746 51 588 b 388 -17 51 146 181 -17 b 639 138 499 -17 586 42 l 639 0 l 638 0 b 569 -129 597 -29 569 -87 b 692 -235 569 -190 614 -235 b 782 -206 726 -235 763 -225 l 782 -144 b 722 -171 768 -164 750 -171 z m 411 94 b 190 367 274 94 190 215 b 413 633 190 517 274 633 b 638 368 539 633 638 536 b 411 94 638 203 540 94 z "},"å":{"ha":864,"x_min":0,"x_max":0,"o":"m 411 794 b 583 967 506 794 583 872 b 411 1139 583 1061 506 1139 b 239 967 317 1139 239 1061 b 411 794 239 872 317 794 z m 411 1064 b 508 967 465 1064 508 1021 b 411 869 508 913 465 869 b 314 967 357 869 314 913 b 411 1064 314 1021 357 1064 z m 639 729 l 639 589 b 382 746 585 686 494 746 b 51 368 176 746 51 588 b 388 -17 51 146 181 -17 b 639 138 499 -17 586 42 l 639 0 l 771 0 l 771 729 z m 411 94 b 190 367 274 94 190 215 b 413 633 190 517 274 633 b 638 368 539 633 638 536 b 411 94 638 203 540 94 z "},"ã":{"ha":864,"x_min":0,"x_max":0,"o":"m 297 904 b 538 811 372 904 451 811 b 700 983 606 811 700 860 l 626 983 b 544 906 622 946 594 906 b 306 1000 479 906 400 1000 b 139 828 225 1000 139 943 l 213 828 b 297 904 218 868 250 904 z m 639 729 l 639 589 b 382 746 585 686 494 746 b 51 368 176 746 51 588 b 388 -17 51 146 181 -17 b 639 138 499 -17 586 42 l 639 0 l 771 0 l 771 729 z m 411 94 b 190 367 274 94 190 215 b 413 633 190 517 274 633 b 638 368 539 633 638 536 b 411 94 638 203 540 94 z "},"æ":{"ha":1313,"x_min":0,"x_max":0,"o":"m 922 92 b 697 338 785 92 697 194 l 1265 338 b 911 746 1263 568 1135 746 b 651 633 801 746 713 703 b 396 746 599 707 504 746 b 74 449 207 746 76 629 l 213 449 b 396 640 214 571 289 640 b 568 518 531 640 567 553 b 68 179 343 439 68 371 b 307 -15 68 75 156 -15 b 585 208 458 -15 542 83 b 931 -17 636 74 761 -17 b 1243 176 1099 -17 1199 74 l 1126 228 b 922 92 1096 138 1015 92 z m 911 638 b 1118 438 1013 638 1103 568 l 703 438 b 911 638 718 561 807 638 z m 325 99 b 204 188 251 99 204 142 b 557 403 204 283 347 331 b 325 99 557 303 511 99 z "},"b":{"ha":885,"x_min":0,"x_max":0,"o":"m 500 746 b 239 571 388 746 283 675 l 239 972 l 100 972 l 100 0 l 239 0 l 239 160 b 490 -17 286 51 381 -17 b 832 371 689 -17 832 144 b 500 746 832 589 693 746 z m 469 89 b 238 360 335 89 238 206 b 469 639 238 524 335 639 b 693 369 599 639 693 525 b 469 89 693 207 599 89 z "},"c":{"ha":810,"x_min":0,"x_max":0,"o":"m 53 365 b 413 -15 53 150 206 -15 b 761 265 614 -15 760 101 l 622 265 b 421 94 621 165 535 94 b 192 365 290 94 192 214 b 418 636 192 521 290 636 b 622 450 531 636 618 558 l 761 450 b 413 746 756 624 610 746 b 53 365 206 746 53 585 z "},"ć":{"ha":810,"x_min":0,"x_max":0,"o":"m 510 1028 l 324 799 l 432 799 l 690 1028 z m 53 365 b 413 -15 53 150 206 -15 b 761 265 614 -15 760 101 l 622 265 b 421 94 621 165 535 94 b 192 365 290 94 192 214 b 418 636 192 521 290 636 b 622 450 531 636 618 558 l 761 450 b 413 746 756 624 610 746 b 53 365 206 746 53 585 z "},"č":{"ha":810,"x_min":0,"x_max":0,"o":"m 332 799 l 500 799 l 689 1028 l 565 1028 l 417 874 l 268 1028 l 143 1028 z m 421 94 b 192 365 290 94 192 214 b 418 636 192 521 290 636 b 622 450 531 636 618 558 l 761 450 b 413 746 756 624 610 746 b 53 365 206 746 53 585 b 413 -15 53 150 206 -15 b 761 265 614 -15 760 101 l 622 265 b 421 94 621 165 535 94 z "},"ç":{"ha":810,"x_min":0,"x_max":0,"o":"m 421 94 b 192 365 290 94 192 214 b 418 636 192 521 290 636 b 622 450 531 636 618 558 l 761 450 b 413 746 756 624 610 746 b 53 365 206 746 53 585 b 357 -11 53 169 179 15 l 272 -143 l 351 -143 b 428 -110 371 -121 404 -110 b 478 -160 458 -110 478 -132 b 404 -221 478 -196 446 -221 b 326 -181 381 -221 346 -208 l 256 -224 b 400 -292 276 -256 331 -292 b 567 -156 493 -292 567 -233 b 464 -58 567 -99 518 -58 b 382 -89 435 -58 403 -71 l 429 -15 b 761 265 622 -8 760 106 l 622 265 b 421 94 621 165 535 94 z "},"ċ":{"ha":810,"x_min":0,"x_max":0,"o":"m 318 910 b 410 817 318 858 358 817 b 501 910 460 817 501 858 b 410 1001 501 960 460 1001 b 318 910 358 1001 318 960 z m 53 365 b 413 -15 53 150 206 -15 b 761 265 614 -15 760 101 l 622 265 b 421 94 621 165 535 94 b 192 365 290 94 192 214 b 418 636 192 521 290 636 b 622 450 531 636 618 558 l 761 450 b 413 746 756 624 610 746 b 53 365 206 746 53 585 z "},"d":{"ha":885,"x_min":0,"x_max":0,"o":"m 646 972 l 646 571 b 385 746 601 675 497 746 b 53 371 193 746 53 589 b 394 -17 53 144 196 -17 b 647 163 506 -17 600 53 l 647 0 l 785 0 l 785 972 z m 417 89 b 192 369 286 89 192 207 b 417 639 192 525 286 639 b 647 360 550 639 647 524 b 417 89 647 206 550 89 z "},"ð":{"ha":792,"x_min":0,"x_max":0,"o":"m 474 985 l 549 1060 l 485 1124 l 399 1038 b 126 1110 322 1082 232 1108 l 126 994 b 311 951 194 993 257 976 l 207 847 l 271 782 l 390 901 b 581 604 501 818 568 694 b 365 746 568 643 519 746 b 54 361 174 746 54 568 b 378 -17 54 153 176 -17 b 729 407 603 -17 729 151 b 474 985 729 603 647 843 z m 392 83 b 193 368 263 83 193 225 b 385 646 193 506 261 646 b 596 368 547 646 596 497 b 392 83 596 225 526 83 z "},"ď":{"ha":921,"x_min":0,"x_max":0,"o":"m 646 571 b 385 746 601 675 497 746 b 53 371 193 746 53 589 b 394 -17 53 144 196 -17 b 647 163 506 -17 600 53 l 647 0 l 785 0 l 785 972 l 646 972 z m 863 972 l 863 857 l 924 857 b 872 779 924 817 911 779 l 872 744 b 978 857 921 744 978 782 l 978 972 z m 417 89 b 192 369 286 89 192 207 b 417 639 192 525 286 639 b 647 360 550 639 647 524 b 417 89 647 206 550 89 z "},"đ":{"ha":885,"x_min":0,"x_max":0,"o":"m 885 885 l 785 885 l 785 972 l 646 972 l 646 885 l 418 885 l 418 797 l 646 797 l 646 571 b 385 746 601 675 497 746 b 53 371 193 746 53 589 b 394 -17 53 144 196 -17 b 647 163 506 -17 600 53 l 647 0 l 785 0 l 785 797 l 885 797 z m 417 89 b 192 369 286 89 192 207 b 417 639 192 525 286 639 b 647 360 550 639 647 524 b 417 89 647 206 550 89 z "},"e":{"ha":808,"x_min":0,"x_max":0,"o":"m 53 361 b 426 -17 53 144 200 -17 b 739 176 594 -17 694 74 l 622 228 b 418 92 592 138 511 92 b 193 338 281 92 193 194 l 761 338 b 407 746 758 568 631 746 b 53 361 185 746 53 569 z m 614 438 l 199 438 b 407 638 214 561 303 638 b 614 438 508 638 599 568 z "},"é":{"ha":808,"x_min":0,"x_max":0,"o":"m 511 1028 l 325 799 l 433 799 l 690 1028 z m 53 361 b 426 -17 53 144 200 -17 b 739 176 594 -17 694 74 l 622 228 b 418 92 592 138 511 92 b 193 338 281 92 193 194 l 761 338 b 407 746 758 568 631 746 b 53 361 185 746 53 569 z m 614 438 l 199 438 b 407 638 214 561 303 638 b 614 438 508 638 599 568 z "},"ě":{"ha":808,"x_min":0,"x_max":0,"o":"m 335 799 l 503 799 l 692 1028 l 568 1028 l 419 874 l 269 1028 l 146 1028 z m 418 92 b 193 338 281 92 193 194 l 761 338 b 407 746 758 568 631 746 b 53 361 185 746 53 569 b 426 -17 53 144 200 -17 b 739 176 594 -17 694 74 l 622 228 b 418 92 592 138 511 92 z m 407 638 b 614 438 508 638 599 568 l 199 438 b 407 638 214 561 303 638 z "},"ê":{"ha":808,"x_min":0,"x_max":0,"o":"m 414 953 l 563 799 l 686 799 l 497 1028 l 329 1028 l 140 799 l 265 799 z m 418 92 b 193 338 281 92 193 194 l 761 338 b 407 746 758 568 631 746 b 53 361 185 746 53 569 b 426 -17 53 144 200 -17 b 739 176 594 -17 694 74 l 622 228 b 418 92 592 138 511 92 z m 407 638 b 614 438 508 638 599 568 l 199 438 b 407 638 214 561 303 638 z "},"ë":{"ha":808,"x_min":0,"x_max":0,"o":"m 154 908 b 240 822 154 858 190 822 b 328 908 289 822 328 858 b 240 997 328 957 289 997 b 154 908 190 997 154 957 z m 489 908 b 576 822 489 858 526 822 b 664 908 625 822 664 858 b 576 997 664 957 625 997 b 489 908 526 997 489 957 z m 53 361 b 426 -17 53 144 200 -17 b 739 176 594 -17 694 74 l 622 228 b 418 92 592 138 511 92 b 193 338 281 92 193 194 l 761 338 b 407 746 758 568 631 746 b 53 361 185 746 53 569 z m 614 438 l 199 438 b 407 638 214 561 303 638 b 614 438 508 638 599 568 z "},"ė":{"ha":808,"x_min":0,"x_max":0,"o":"m 317 910 b 408 817 317 858 357 817 b 500 910 458 817 500 858 b 408 1001 500 960 458 1001 b 317 910 357 1001 317 960 z m 53 361 b 426 -17 53 144 200 -17 b 739 176 594 -17 694 74 l 622 228 b 418 92 592 138 511 92 b 193 338 281 92 193 194 l 761 338 b 407 746 758 568 631 746 b 53 361 185 746 53 569 z m 614 438 l 199 438 b 407 638 214 561 303 638 b 614 438 508 638 599 568 z "},"è":{"ha":808,"x_min":0,"x_max":0,"o":"m 304 1028 l 125 1028 l 382 799 l 490 799 z m 53 361 b 426 -17 53 144 200 -17 b 739 176 594 -17 694 74 l 622 228 b 418 92 592 138 511 92 b 193 338 281 92 193 194 l 761 338 b 407 746 758 568 631 746 b 53 361 185 746 53 569 z m 614 438 l 199 438 b 407 638 214 561 303 638 b 614 438 508 638 599 568 z "},"ē":{"ha":808,"x_min":0,"x_max":0,"o":"m 115 886 l 115 799 l 699 799 l 699 886 z m 53 361 b 426 -17 53 144 200 -17 b 739 176 594 -17 694 74 l 622 228 b 418 92 592 138 511 92 b 193 338 281 92 193 194 l 761 338 b 407 746 758 568 631 746 b 53 361 185 746 53 569 z m 614 438 l 199 438 b 407 638 214 561 303 638 b 614 438 508 638 599 568 z "},"ę":{"ha":808,"x_min":0,"x_max":0,"o":"m 418 92 b 193 338 281 92 193 194 l 761 338 b 407 746 758 568 631 746 b 53 361 185 746 53 569 b 426 -17 53 144 200 -17 l 428 -17 b 372 -131 396 -49 372 -94 b 493 -236 372 -190 415 -236 b 585 -206 529 -236 564 -226 l 585 -146 b 525 -172 571 -164 553 -172 b 475 -111 493 -172 475 -142 b 522 -6 475 -76 488 -43 b 739 176 633 21 704 94 l 622 228 b 418 92 592 138 511 92 z m 407 638 b 614 438 508 638 599 568 l 199 438 b 407 638 214 561 303 638 z "},"f":{"ha":558,"x_min":0,"x_max":0,"o":"m 428 879 b 547 826 476 879 518 857 l 547 924 b 388 989 518 963 453 989 b 182 736 250 989 182 897 l 182 729 l 13 729 l 13 622 l 182 622 l 182 0 l 321 0 l 321 622 l 547 622 l 547 729 l 321 729 l 321 736 b 428 879 321 850 364 879 z "},"g":{"ha":861,"x_min":0,"x_max":0,"o":"m 622 728 l 622 601 b 385 746 593 686 501 746 b 54 372 193 746 54 588 b 386 15 54 164 194 15 b 626 174 503 15 590 79 l 626 47 b 426 -171 626 -96 540 -171 b 235 -24 326 -171 242 -111 l 96 -24 b 429 -269 108 -171 251 -269 b 761 47 617 -269 761 -161 l 761 728 z m 417 114 b 193 376 303 114 193 203 b 414 644 193 532 281 644 b 632 372 556 644 632 518 b 417 114 632 211 536 114 z "},"ğ":{"ha":861,"x_min":0,"x_max":0,"o":"m 418 797 b 667 1028 563 797 664 890 l 564 1028 b 418 878 561 936 501 878 b 272 1028 333 878 274 938 l 169 1028 b 418 797 172 890 272 797 z m 622 728 l 622 601 b 385 746 593 686 501 746 b 54 372 193 746 54 588 b 386 15 54 164 194 15 b 626 174 503 15 590 79 l 626 47 b 426 -171 626 -96 540 -171 b 235 -24 326 -171 242 -111 l 96 -24 b 429 -269 108 -171 251 -269 b 761 47 617 -269 761 -161 l 761 728 z m 417 114 b 193 376 303 114 193 203 b 414 644 193 532 281 644 b 632 372 556 644 632 518 b 417 114 632 211 536 114 z "},"ģ":{"ha":861,"x_min":0,"x_max":0,"o":"m 479 957 l 418 957 b 468 1035 418 997 431 1035 l 468 1068 b 364 957 421 1068 364 1031 l 364 840 l 479 840 z m 622 728 l 622 601 b 385 746 593 686 501 746 b 54 372 193 746 54 588 b 386 15 54 164 194 15 b 626 174 503 15 590 79 l 626 47 b 426 -171 626 -96 540 -171 b 235 -24 326 -171 242 -111 l 96 -24 b 429 -269 108 -171 251 -269 b 761 47 617 -269 761 -161 l 761 728 z m 417 114 b 193 376 303 114 193 203 b 414 644 193 532 281 644 b 632 372 556 644 632 518 b 417 114 632 211 536 114 z "},"ġ":{"ha":861,"x_min":0,"x_max":0,"o":"m 421 817 b 513 910 471 817 513 858 b 421 1001 513 960 471 1001 b 329 910 369 1001 329 960 b 421 817 329 858 369 817 z m 622 728 l 622 601 b 385 746 593 686 501 746 b 54 372 193 746 54 588 b 386 15 54 164 194 15 b 626 174 503 15 590 79 l 626 47 b 426 -171 626 -96 540 -171 b 235 -24 326 -171 242 -111 l 96 -24 b 429 -269 108 -171 251 -269 b 761 47 617 -269 761 -161 l 761 728 z m 417 114 b 193 376 303 114 193 203 b 414 644 193 532 281 644 b 632 372 556 644 632 518 b 417 114 632 211 536 114 z "},"h":{"ha":842,"x_min":0,"x_max":0,"o":"m 501 746 b 239 514 368 746 278 650 l 239 972 l 100 972 l 100 0 l 239 0 l 239 315 b 449 621 239 433 296 621 b 610 368 582 621 610 521 l 610 0 l 749 0 l 749 429 b 501 746 749 646 661 746 z "},"ħ":{"ha":842,"x_min":0,"x_max":0,"o":"m 501 746 b 239 514 368 746 278 650 l 239 797 l 467 797 l 467 885 l 239 885 l 239 972 l 100 972 l 100 885 l 0 885 l 0 797 l 100 797 l 100 0 l 239 0 l 239 315 b 449 621 239 433 296 621 b 610 368 582 621 610 521 l 610 0 l 749 0 l 749 429 b 501 746 749 646 661 746 z "},"i":{"ha":339,"x_min":0,"x_max":0,"o":"m 76 910 b 169 818 76 857 115 818 b 263 910 222 818 263 857 b 169 1003 263 963 222 1003 b 76 910 115 1003 76 963 z m 100 729 l 100 0 l 239 0 l 239 729 z "},"ı":{"ha":339,"x_min":0,"x_max":0,"o":"m 100 729 l 100 0 l 239 0 l 239 729 z "},"í":{"ha":339,"x_min":0,"x_max":0,"o":"m 272 1028 l 86 799 l 194 799 l 451 1028 z m 100 729 l 100 0 l 239 0 l 239 729 z "},"î":{"ha":339,"x_min":0,"x_max":0,"o":"m 250 1028 l 82 1028 l -107 799 l 18 799 l 167 953 l 315 799 l 439 799 z m 100 0 l 239 0 l 239 729 l 100 729 z "},"ï":{"ha":339,"x_min":0,"x_max":0,"o":"m -85 908 b 1 822 -85 858 -47 822 b 89 908 50 822 89 858 b 1 997 89 957 50 997 b -85 908 -47 997 -85 957 z m 250 908 b 338 822 250 858 288 822 b 425 908 386 822 425 858 b 338 997 425 957 386 997 b 250 908 288 997 250 957 z m 100 729 l 100 0 l 239 0 l 239 729 z "},"ì":{"ha":339,"x_min":0,"x_max":0,"o":"m 67 1028 l -112 1028 l 144 799 l 253 799 z m 100 729 l 100 0 l 239 0 l 239 729 z "},"ī":{"ha":339,"x_min":0,"x_max":0,"o":"m -122 886 l -122 799 l 461 799 l 461 886 z m 100 729 l 100 0 l 239 0 l 239 729 z "},"į":{"ha":339,"x_min":0,"x_max":0,"o":"m 169 817 b 261 910 219 817 261 858 b 169 1001 261 960 219 1001 b 78 910 118 1001 78 960 b 169 817 78 858 118 817 z m 214 -172 b 164 -111 182 -172 164 -142 b 217 0 164 -75 178 -40 l 239 0 l 239 729 l 100 729 l 100 0 l 136 0 b 61 -131 96 -29 61 -87 b 182 -236 61 -190 104 -236 b 274 -206 218 -236 253 -226 l 274 -146 b 214 -172 260 -164 242 -172 z "},"j":{"ha":357,"x_min":0,"x_max":0,"o":"m 93 911 b 186 818 93 858 132 818 b 278 911 238 818 278 858 b 186 1004 278 964 238 1004 b 93 911 132 1004 93 964 z m -110 -190 b 38 -244 -75 -228 -22 -244 b 256 15 157 -244 256 -157 l 256 729 l 117 729 l 117 15 b 14 -128 117 -82 75 -128 b -110 -75 -33 -128 -81 -110 z "},"ȷ":{"ha":357,"x_min":0,"x_max":0,"o":"m -110 -190 b 38 -244 -75 -228 -22 -244 b 256 15 157 -244 256 -157 l 256 729 l 117 729 l 117 15 b 14 -128 117 -82 75 -128 b -110 -75 -33 -128 -81 -110 z "},"k":{"ha":731,"x_min":0,"x_max":0,"o":"m 747 0 l 415 442 l 703 729 l 528 729 l 239 436 l 239 972 l 100 972 l 100 0 l 239 0 l 239 267 l 321 349 l 575 0 z "},"ķ":{"ha":731,"x_min":0,"x_max":0,"o":"m 415 442 l 703 729 l 528 729 l 239 436 l 239 972 l 100 972 l 100 0 l 239 0 l 239 267 l 321 349 l 575 0 l 747 0 z m 321 -171 l 382 -171 b 332 -249 382 -211 369 -249 l 332 -283 b 436 -171 379 -283 436 -246 l 436 -56 l 321 -56 z "},"l":{"ha":339,"x_min":0,"x_max":0,"o":"m 100 972 l 100 0 l 239 0 l 239 972 z "},"ĺ":{"ha":339,"x_min":0,"x_max":0,"o":"m 310 1286 l 124 1057 l 232 1057 l 489 1286 z m 100 972 l 100 0 l 239 0 l 239 972 z "},"ľ":{"ha":375,"x_min":0,"x_max":0,"o":"m 100 0 l 239 0 l 239 972 l 100 972 z m 317 972 l 317 857 l 378 857 b 328 779 378 817 365 779 l 328 744 b 432 857 375 744 432 782 l 432 972 z "},"ļ":{"ha":339,"x_min":0,"x_max":0,"o":"m 100 972 l 100 0 l 239 0 l 239 972 z m 108 -171 l 169 -171 b 119 -249 169 -211 157 -249 l 119 -283 b 224 -171 167 -283 224 -246 l 224 -56 l 108 -56 z "},"ŀ":{"ha":518,"x_min":0,"x_max":0,"o":"m 100 972 l 100 0 l 239 0 l 239 972 z m 331 397 b 428 299 331 343 374 299 b 525 397 481 299 525 343 b 428 493 525 450 481 493 b 331 397 374 493 331 450 z "},"ł":{"ha":407,"x_min":0,"x_max":0,"o":"m 354 654 l 272 585 l 272 972 l 133 972 l 133 482 l 47 410 l 47 288 l 133 360 l 133 0 l 272 0 l 272 463 l 354 532 z "},"m":{"ha":1261,"x_min":0,"x_max":0,"o":"m 947 746 b 697 522 814 746 733 654 b 482 746 681 640 624 746 b 239 544 357 746 278 664 l 239 729 l 100 729 l 100 0 l 239 0 l 239 315 b 419 621 239 457 275 621 b 565 368 567 621 565 451 l 565 0 l 704 0 l 704 315 b 885 621 704 457 740 621 b 1031 368 1032 621 1031 451 l 1031 0 l 1169 0 l 1169 429 b 947 746 1169 576 1126 746 z "},"n":{"ha":842,"x_min":0,"x_max":0,"o":"m 501 746 b 239 514 368 746 278 650 l 239 729 l 100 729 l 100 0 l 239 0 l 239 315 b 449 621 239 433 296 621 b 610 368 582 621 610 521 l 610 0 l 749 0 l 749 429 b 501 746 749 646 661 746 z "},"ń":{"ha":842,"x_min":0,"x_max":0,"o":"m 715 1028 l 536 1028 l 350 799 l 458 799 z m 501 746 b 239 514 368 746 278 650 l 239 729 l 100 729 l 100 0 l 239 0 l 239 315 b 449 621 239 433 296 621 b 610 368 582 621 610 521 l 610 0 l 749 0 l 749 429 b 501 746 749 646 661 746 z "},"ň":{"ha":842,"x_min":0,"x_max":0,"o":"m 350 799 l 518 799 l 707 1028 l 582 1028 l 433 874 l 285 1028 l 161 1028 z m 501 746 b 239 514 368 746 278 650 l 239 729 l 100 729 l 100 0 l 239 0 l 239 315 b 449 621 239 433 296 621 b 610 368 582 621 610 521 l 610 0 l 749 0 l 749 429 b 501 746 749 646 661 746 z "},"ņ":{"ha":842,"x_min":0,"x_max":0,"o":"m 501 746 b 239 514 368 746 278 650 l 239 729 l 100 729 l 100 0 l 239 0 l 239 315 b 449 621 239 433 296 621 b 610 368 582 621 610 521 l 610 0 l 749 0 l 749 429 b 501 746 749 646 661 746 z m 371 -171 l 432 -171 b 382 -249 432 -211 419 -249 l 382 -283 b 486 -171 429 -283 486 -246 l 486 -56 l 371 -56 z "},"ŋ":{"ha":842,"x_min":0,"x_max":0,"o":"m 501 746 b 239 514 368 746 278 650 l 239 729 l 100 729 l 100 0 l 239 0 l 239 315 b 449 621 239 433 296 621 b 610 368 582 621 610 521 l 610 0 b 503 -137 610 -104 567 -137 b 383 -90 449 -137 413 -118 l 383 -206 b 531 -254 418 -237 472 -254 b 749 0 676 -254 749 -136 l 749 429 b 501 746 749 646 661 746 z "},"ñ":{"ha":842,"x_min":0,"x_max":0,"o":"m 307 906 b 547 811 382 906 461 811 b 710 983 615 811 710 861 l 636 983 b 554 907 632 946 604 907 b 315 1000 489 907 410 1000 b 147 828 235 1000 147 943 l 222 828 b 307 906 228 868 260 906 z m 501 746 b 239 514 368 746 278 650 l 239 729 l 100 729 l 100 0 l 239 0 l 239 315 b 449 621 239 433 296 621 b 610 368 582 621 610 521 l 610 0 l 749 0 l 749 429 b 501 746 749 646 661 746 z "},"o":{"ha":839,"x_min":0,"x_max":0,"o":"m 53 367 b 419 -17 53 147 207 -17 b 786 367 632 -17 786 147 b 419 746 786 585 632 746 b 53 367 207 746 53 585 z m 647 367 b 419 94 647 213 553 94 b 192 367 285 94 192 213 b 419 633 192 518 285 633 b 647 367 553 633 647 518 z "},"ó":{"ha":839,"x_min":0,"x_max":0,"o":"m 524 1028 l 338 799 l 446 799 l 703 1028 z m 53 367 b 419 -17 53 147 207 -17 b 786 367 632 -17 786 147 b 419 746 786 585 632 746 b 53 367 207 746 53 585 z m 647 367 b 419 94 647 213 553 94 b 192 367 285 94 192 213 b 419 633 192 518 285 633 b 647 367 553 633 647 518 z "},"ô":{"ha":839,"x_min":0,"x_max":0,"o":"m 424 953 l 572 799 l 697 799 l 508 1028 l 339 1028 l 150 799 l 275 799 z m 419 746 b 53 367 207 746 53 585 b 419 -17 53 147 207 -17 b 786 367 632 -17 786 147 b 419 746 786 585 632 746 z m 419 94 b 192 367 285 94 192 213 b 419 633 192 518 285 633 b 647 367 553 633 647 518 b 419 94 647 213 553 94 z "},"ö":{"ha":839,"x_min":0,"x_max":0,"o":"m 167 908 b 253 822 167 858 203 822 b 340 908 301 822 340 858 b 253 997 340 957 301 997 b 167 908 203 997 167 957 z m 501 908 b 589 822 501 858 539 822 b 676 908 638 822 676 858 b 589 997 676 957 638 997 b 501 908 539 997 501 957 z m 53 367 b 419 -17 53 147 207 -17 b 786 367 632 -17 786 147 b 419 746 786 585 632 746 b 53 367 207 746 53 585 z m 647 367 b 419 94 647 213 553 94 b 192 367 285 94 192 213 b 419 633 192 518 285 633 b 647 367 553 633 647 518 z "},"ò":{"ha":839,"x_min":0,"x_max":0,"o":"m 317 1028 l 138 1028 l 394 799 l 503 799 z m 53 367 b 419 -17 53 147 207 -17 b 786 367 632 -17 786 147 b 419 746 786 585 632 746 b 53 367 207 746 53 585 z m 647 367 b 419 94 647 213 553 94 b 192 367 285 94 192 213 b 419 633 192 518 285 633 b 647 367 553 633 647 518 z "},"ő":{"ha":839,"x_min":0,"x_max":0,"o":"m 388 1028 l 201 799 l 310 799 l 567 1028 z m 661 1028 l 475 799 l 583 799 l 840 1028 z m 53 367 b 419 -17 53 147 207 -17 b 786 367 632 -17 786 147 b 419 746 786 585 632 746 b 53 367 207 746 53 585 z m 647 367 b 419 94 647 213 553 94 b 192 367 285 94 192 213 b 419 633 192 518 285 633 b 647 367 553 633 647 518 z "},"ō":{"ha":839,"x_min":0,"x_max":0,"o":"m 128 886 l 128 799 l 711 799 l 711 886 z m 53 367 b 419 -17 53 147 207 -17 b 786 367 632 -17 786 147 b 419 746 786 585 632 746 b 53 367 207 746 53 585 z m 647 367 b 419 94 647 213 553 94 b 192 367 285 94 192 213 b 419 633 192 518 285 633 b 647 367 553 633 647 518 z "},"ø":{"ha":840,"x_min":0,"x_max":0,"o":"m 676 644 l 751 750 l 636 750 l 601 700 b 419 746 549 729 486 746 b 53 367 207 746 53 585 b 163 88 53 254 93 156 l 82 -25 l 197 -25 l 236 31 b 419 -17 289 0 351 -17 b 786 367 632 -17 786 147 b 676 644 786 479 744 576 z m 192 367 b 419 633 192 518 286 633 b 531 603 461 633 499 622 l 239 194 b 192 367 208 242 192 300 z m 419 94 b 306 128 378 94 339 107 l 599 536 b 647 367 629 492 647 432 b 419 94 647 213 554 94 z "},"õ":{"ha":839,"x_min":0,"x_max":0,"o":"m 307 904 b 547 811 382 904 463 811 b 710 983 615 811 710 860 l 636 983 b 556 906 632 946 606 906 b 315 1000 490 906 410 1000 b 149 828 236 1000 149 943 l 224 828 b 307 904 229 868 261 904 z m 53 367 b 419 -17 53 147 207 -17 b 786 367 632 -17 786 147 b 419 746 786 585 632 746 b 53 367 207 746 53 585 z m 647 367 b 419 94 647 213 553 94 b 192 367 285 94 192 213 b 419 633 192 518 285 633 b 647 367 553 633 647 518 z "},"œ":{"ha":1396,"x_min":0,"x_max":0,"o":"m 1007 92 b 782 306 879 92 794 179 b 785 338 783 317 785 326 l 1349 338 b 994 746 1346 568 1218 746 b 713 603 869 746 772 690 b 419 746 647 692 543 746 b 53 367 207 746 53 585 b 419 -17 53 147 207 -17 b 711 128 543 -17 646 39 b 1014 -17 776 39 882 -17 b 1326 176 1182 -17 1282 74 l 1210 228 b 1007 92 1179 138 1099 92 z m 994 638 b 1201 438 1096 638 1186 568 l 786 438 b 994 638 801 561 890 638 z m 419 94 b 192 367 285 94 192 213 b 419 633 192 518 285 633 b 643 417 538 633 625 543 b 640 361 642 399 640 381 b 643 311 640 344 642 328 b 419 94 624 185 536 94 z "},"p":{"ha":885,"x_min":0,"x_max":0,"o":"m 490 746 b 239 569 381 746 286 678 l 239 729 l 100 729 l 100 -243 l 239 -243 l 239 158 b 500 -17 283 54 388 -17 b 832 358 693 -17 832 140 b 490 746 832 585 689 746 z m 469 90 b 238 369 335 90 238 206 b 469 640 238 524 335 640 b 693 360 599 640 693 522 b 469 90 693 204 599 90 z "},"þ":{"ha":885,"x_min":0,"x_max":0,"o":"m 500 746 b 239 571 388 746 283 675 l 239 972 l 100 972 l 100 0 l 101 0 l 101 -243 l 240 -243 l 240 157 b 490 -17 289 50 381 -17 b 832 371 689 -17 832 144 b 500 746 832 589 693 746 z m 469 89 b 238 360 335 89 238 206 b 469 639 238 524 335 639 b 693 369 599 639 693 525 b 469 89 693 207 599 89 z "},"q":{"ha":885,"x_min":0,"x_max":0,"o":"m 646 729 l 646 569 b 394 746 599 678 504 746 b 53 358 196 746 53 585 b 385 -17 53 140 192 -17 b 646 158 497 -17 601 54 l 646 -243 l 785 -243 l 785 729 z m 415 90 b 192 360 286 90 192 204 b 415 640 192 522 286 640 b 647 369 550 640 647 524 b 415 90 647 206 550 90 z "},"r":{"ha":508,"x_min":0,"x_max":0,"o":"m 239 540 l 239 729 l 100 729 l 100 0 l 239 0 l 239 413 b 411 606 239 533 331 606 b 486 592 438 606 468 599 l 486 742 b 239 540 375 742 272 668 z "},"ŕ":{"ha":508,"x_min":0,"x_max":0,"o":"m 546 1028 l 365 1028 l 181 799 l 288 799 z m 239 540 l 239 729 l 100 729 l 100 0 l 239 0 l 239 413 b 411 606 239 533 331 606 b 486 592 438 606 468 599 l 486 742 b 239 540 375 742 272 668 z "},"ř":{"ha":508,"x_min":0,"x_max":0,"o":"m 176 799 l 344 799 l 533 1028 l 410 1028 l 261 874 l 111 1028 l -12 1028 z m 239 540 l 239 729 l 100 729 l 100 0 l 239 0 l 239 413 b 411 606 239 533 331 606 b 486 592 438 606 468 599 l 486 742 b 239 540 375 742 272 668 z "},"ŗ":{"ha":508,"x_min":0,"x_max":0,"o":"m 239 540 l 239 729 l 100 729 l 100 0 l 239 0 l 239 413 b 411 606 239 533 331 606 b 486 592 438 606 468 599 l 486 742 b 239 540 375 742 272 668 z m 111 -171 l 172 -171 b 122 -249 172 -211 160 -249 l 122 -283 b 226 -171 169 -283 226 -246 l 226 -56 l 111 -56 z "},"s":{"ha":740,"x_min":0,"x_max":0,"o":"m 44 263 b 383 -17 44 131 157 -17 b 693 218 588 -17 693 100 b 375 429 693 382 499 407 b 208 528 269 447 208 465 b 369 640 208 604 290 640 b 522 482 489 640 521 560 l 661 482 b 367 746 661 590 596 746 b 69 518 182 746 69 644 b 376 310 69 356 249 333 b 554 204 468 292 554 278 b 390 89 554 129 468 89 b 183 263 338 89 183 114 z "},"ś":{"ha":740,"x_min":0,"x_max":0,"o":"m 474 1028 l 288 799 l 396 799 l 653 1028 z m 44 263 b 383 -17 44 131 157 -17 b 693 218 588 -17 693 100 b 375 429 693 382 499 407 b 208 528 269 447 208 465 b 369 640 208 604 290 640 b 522 482 489 640 521 560 l 661 482 b 367 746 661 590 596 746 b 69 518 182 746 69 644 b 376 310 69 356 249 333 b 554 204 468 292 554 278 b 390 89 554 129 468 89 b 183 263 338 89 183 114 z "},"š":{"ha":740,"x_min":0,"x_max":0,"o":"m 301 799 l 469 799 l 658 1028 l 535 1028 l 386 874 l 238 1028 l 113 1028 z m 375 429 b 208 528 269 447 208 465 b 369 640 208 604 290 640 b 522 482 489 640 521 560 l 661 482 b 367 746 661 590 596 746 b 69 518 182 746 69 644 b 376 310 69 356 249 333 b 554 204 468 292 554 278 b 390 89 554 129 468 89 b 183 263 338 89 183 114 l 44 263 b 383 -17 44 131 157 -17 b 693 218 588 -17 693 100 b 375 429 693 382 499 407 z "},"ş":{"ha":740,"x_min":0,"x_max":0,"o":"m 693 218 b 375 429 693 382 499 407 b 208 528 269 447 208 465 b 369 640 208 604 290 640 b 522 482 489 640 521 560 l 661 482 b 367 746 661 590 596 746 b 69 518 182 746 69 644 b 376 310 69 356 249 333 b 554 204 468 292 554 278 b 390 89 554 129 468 89 b 183 263 338 89 183 114 l 44 263 b 325 -14 44 142 138 10 l 242 -143 l 321 -143 b 397 -110 340 -121 374 -110 b 447 -160 428 -110 447 -132 b 374 -221 447 -196 415 -221 b 296 -181 350 -221 315 -208 l 225 -224 b 369 -292 246 -256 300 -292 b 536 -156 463 -292 536 -233 b 433 -58 536 -99 488 -58 b 351 -89 404 -58 372 -71 l 399 -17 b 693 218 593 -11 693 103 z "},"ș":{"ha":740,"x_min":0,"x_max":0,"o":"m 375 429 b 208 528 269 447 208 465 b 369 640 208 604 290 640 b 522 482 489 640 521 560 l 661 482 b 367 746 661 590 596 746 b 69 518 182 746 69 644 b 376 310 69 356 249 333 b 554 204 468 292 554 278 b 390 89 554 129 468 89 b 183 263 338 89 183 114 l 44 263 b 383 -17 44 131 157 -17 b 693 218 588 -17 693 100 b 375 429 693 382 499 407 z m 315 -171 l 376 -171 b 326 -249 376 -211 364 -249 l 326 -283 b 431 -171 374 -283 431 -246 l 431 -56 l 315 -56 z "},"ß":{"ha":876,"x_min":0,"x_max":0,"o":"m 267 194 b 532 -17 292 57 407 -17 b 829 274 706 -17 829 106 b 542 544 829 449 672 532 b 725 731 611 553 725 593 b 425 989 725 875 603 989 b 100 638 243 989 100 867 l 100 0 l 239 0 l 239 638 b 426 871 239 799 325 871 b 590 722 521 871 590 811 b 376 585 590 614 488 590 l 376 476 b 690 268 561 476 690 417 b 532 103 690 176 621 103 b 385 239 451 103 392 163 z "},"t":{"ha":571,"x_min":0,"x_max":0,"o":"m 424 100 b 315 235 356 100 315 132 l 315 622 l 525 622 l 525 728 l 315 728 l 315 944 l 214 944 l 176 729 l 176 728 l 11 728 l 11 622 l 176 622 l 176 235 b 389 -17 176 88 243 -17 b 543 38 447 -17 507 0 l 543 158 b 424 100 518 124 476 100 z "},"ŧ":{"ha":593,"x_min":0,"x_max":0,"o":"m 424 100 b 315 235 356 100 315 132 l 315 388 l 542 388 l 542 490 l 315 490 l 315 622 l 525 622 l 525 728 l 315 728 l 315 944 l 214 944 l 176 729 l 176 728 l 11 728 l 11 622 l 176 622 l 176 490 l 26 490 l 26 388 l 176 388 l 176 235 b 389 -17 176 88 243 -17 b 543 38 447 -17 507 0 l 543 158 b 424 100 518 124 476 100 z "},"ť":{"ha":571,"x_min":0,"x_max":0,"o":"m 404 815 l 404 782 b 508 893 451 782 508 818 l 508 1008 l 393 1008 l 393 893 l 454 893 b 404 815 454 853 442 815 z m 424 100 b 315 235 356 100 315 132 l 315 622 l 525 622 l 525 728 l 315 728 l 315 944 l 214 944 l 176 729 l 176 728 l 11 728 l 11 622 l 176 622 l 176 235 b 389 -17 176 88 243 -17 b 543 38 447 -17 507 0 l 543 158 b 424 100 518 124 476 100 z "},"ţ":{"ha":571,"x_min":0,"x_max":0,"o":"m 424 100 b 315 235 356 100 315 132 l 315 622 l 525 622 l 525 728 l 315 728 l 315 944 l 214 944 l 176 729 l 176 728 l 11 728 l 11 622 l 176 622 l 176 235 b 322 -8 176 113 222 19 l 235 -143 l 314 -143 b 390 -110 333 -121 367 -110 b 440 -160 421 -110 440 -132 b 367 -221 440 -196 408 -221 b 289 -181 343 -221 308 -208 l 218 -224 b 363 -292 239 -256 293 -292 b 529 -156 456 -292 529 -233 b 426 -58 529 -99 481 -58 b 344 -89 397 -58 365 -71 l 392 -17 b 543 38 449 -17 507 0 l 543 158 b 424 100 518 124 476 100 z "},"ț":{"ha":571,"x_min":0,"x_max":0,"o":"m 424 100 b 315 235 356 100 315 132 l 315 622 l 525 622 l 525 728 l 315 728 l 315 944 l 214 944 l 176 729 l 176 728 l 11 728 l 11 622 l 176 622 l 176 235 b 389 -17 176 88 243 -17 b 543 38 447 -17 507 0 l 543 158 b 424 100 518 124 476 100 z m 308 -171 l 369 -171 b 319 -249 369 -211 357 -249 l 319 -283 b 424 -171 367 -283 424 -246 l 424 -56 l 308 -56 z "},"u":{"ha":842,"x_min":0,"x_max":0,"o":"m 603 729 l 603 414 b 393 108 603 296 546 108 b 232 361 260 108 232 208 l 232 729 l 93 729 l 93 300 b 340 -17 93 83 181 -17 b 603 215 474 -17 564 79 l 603 0 l 742 0 l 742 729 z "},"ú":{"ha":842,"x_min":0,"x_max":0,"o":"m 715 1028 l 535 1028 l 349 799 l 457 799 z m 603 729 l 603 414 b 393 108 603 296 546 108 b 232 361 260 108 232 208 l 232 729 l 93 729 l 93 300 b 340 -17 93 83 181 -17 b 603 215 474 -17 564 79 l 603 0 l 742 0 l 742 729 z "},"û":{"ha":842,"x_min":0,"x_max":0,"o":"m 429 953 l 578 799 l 703 799 l 514 1028 l 346 1028 l 157 799 l 281 799 z m 603 729 l 603 414 b 393 108 603 296 546 108 b 232 361 260 108 232 208 l 232 729 l 93 729 l 93 300 b 340 -17 93 83 181 -17 b 603 215 474 -17 564 79 l 603 0 l 742 0 l 742 729 z "},"ü":{"ha":842,"x_min":0,"x_max":0,"o":"m 253 822 b 340 908 301 822 340 858 b 253 997 340 957 301 997 b 167 908 203 997 167 957 b 253 822 167 858 203 822 z m 589 822 b 676 908 638 822 676 858 b 589 997 676 957 638 997 b 501 908 539 997 501 957 b 589 822 501 858 539 822 z m 603 729 l 603 414 b 393 108 603 296 546 108 b 232 361 260 108 232 208 l 232 729 l 93 729 l 93 300 b 340 -17 93 83 181 -17 b 603 215 474 -17 564 79 l 603 0 l 742 0 l 742 729 z "},"ù":{"ha":842,"x_min":0,"x_max":0,"o":"m 503 799 l 317 1028 l 138 1028 l 394 799 z m 603 729 l 603 414 b 393 108 603 296 546 108 b 232 361 260 108 232 208 l 232 729 l 93 729 l 93 300 b 340 -17 93 83 181 -17 b 603 215 474 -17 564 79 l 603 0 l 742 0 l 742 729 z "},"ű":{"ha":842,"x_min":0,"x_max":0,"o":"m 547 1028 l 368 1028 l 182 799 l 290 799 z m 564 799 l 822 1028 l 642 1028 l 457 799 z m 603 414 b 393 108 603 296 546 108 b 232 361 260 108 232 208 l 232 729 l 93 729 l 93 300 b 340 -17 93 83 181 -17 b 603 215 474 -17 564 79 l 603 0 l 742 0 l 742 729 l 603 729 z "},"ū":{"ha":842,"x_min":0,"x_max":0,"o":"m 711 886 l 128 886 l 128 799 l 711 799 z m 603 729 l 603 414 b 393 108 603 296 546 108 b 232 361 260 108 232 208 l 232 729 l 93 729 l 93 300 b 340 -17 93 83 181 -17 b 603 215 474 -17 564 79 l 603 0 l 742 0 l 742 729 z "},"ų":{"ha":840,"x_min":0,"x_max":0,"o":"m 714 -172 b 665 -111 682 -172 665 -142 b 718 0 665 -75 678 -40 l 742 0 l 742 729 l 603 729 l 603 414 b 393 108 603 296 546 108 b 232 361 260 108 232 208 l 232 729 l 93 729 l 93 300 b 340 -17 93 83 181 -17 b 603 215 474 -17 564 79 l 603 0 l 636 0 b 561 -131 596 -29 561 -87 b 682 -236 561 -190 606 -236 b 774 -206 718 -236 753 -226 l 774 -146 b 714 -172 760 -164 742 -172 z "},"ů":{"ha":842,"x_min":0,"x_max":0,"o":"m 419 794 b 592 967 514 794 592 872 b 419 1139 592 1061 514 1139 b 247 967 325 1139 247 1061 b 419 794 247 872 325 794 z m 419 1064 b 517 967 474 1064 517 1021 b 419 869 517 913 474 869 b 322 967 365 869 322 913 b 419 1064 322 1021 365 1064 z m 603 729 l 603 414 b 393 108 603 296 546 108 b 232 361 260 108 232 208 l 232 729 l 93 729 l 93 300 b 340 -17 93 83 181 -17 b 603 215 474 -17 564 79 l 603 0 l 742 0 l 742 729 z "},"v":{"ha":776,"x_min":0,"x_max":0,"o":"m 618 729 l 389 97 l 158 729 l 18 729 l 285 0 l 492 0 l 758 729 z "},"w":{"ha":1163,"x_min":0,"x_max":0,"o":"m 1001 729 l 819 103 l 664 729 l 507 729 l 342 103 l 169 729 l 25 729 l 236 0 l 432 0 l 583 543 l 726 0 l 924 0 l 1146 729 z "},"ẃ":{"ha":1163,"x_min":0,"x_max":0,"o":"m 868 1028 l 689 1028 l 503 799 l 611 799 z m 1001 729 l 819 103 l 664 729 l 507 729 l 342 103 l 169 729 l 25 729 l 236 0 l 432 0 l 583 543 l 726 0 l 924 0 l 1146 729 z "},"ŵ":{"ha":1163,"x_min":0,"x_max":0,"o":"m 597 953 l 746 799 l 869 799 l 681 1028 l 513 1028 l 324 799 l 447 799 z m 1001 729 l 819 103 l 664 729 l 507 729 l 342 103 l 169 729 l 25 729 l 236 0 l 432 0 l 583 543 l 726 0 l 924 0 l 1146 729 z "},"ẅ":{"ha":1163,"x_min":0,"x_max":0,"o":"m 418 822 b 506 908 467 822 506 858 b 418 997 506 957 467 997 b 332 908 368 997 332 957 b 418 822 332 858 368 822 z m 754 822 b 842 908 803 822 842 858 b 754 997 842 957 803 997 b 667 908 704 997 667 957 b 754 822 667 858 704 822 z m 1001 729 l 819 103 l 664 729 l 507 729 l 342 103 l 169 729 l 25 729 l 236 0 l 432 0 l 583 543 l 726 0 l 924 0 l 1146 729 z "},"ẁ":{"ha":1163,"x_min":0,"x_max":0,"o":"m 669 799 l 483 1028 l 304 1028 l 561 799 z m 1001 729 l 819 103 l 664 729 l 507 729 l 342 103 l 169 729 l 25 729 l 236 0 l 432 0 l 583 543 l 726 0 l 924 0 l 1146 729 z "},"x":{"ha":735,"x_min":0,"x_max":0,"o":"m 729 0 l 449 372 l 717 729 l 554 729 l 367 481 l 179 729 l 17 729 l 286 371 l 7 0 l 169 0 l 367 263 l 564 0 z "},"y":{"ha":732,"x_min":0,"x_max":0,"o":"m 579 729 l 369 183 l 156 729 l 13 729 l 301 7 l 299 0 b 182 -139 268 -71 244 -139 b 60 -94 136 -139 88 -115 l 60 -222 b 197 -264 88 -246 150 -264 b 436 -12 322 -264 371 -175 l 717 729 z "},"ý":{"ha":732,"x_min":0,"x_max":0,"o":"m 647 1028 l 468 1028 l 282 799 l 390 799 z m 579 729 l 369 183 l 156 729 l 13 729 l 301 7 l 299 0 b 182 -139 268 -71 244 -139 b 60 -94 136 -139 88 -115 l 60 -222 b 197 -264 88 -246 150 -264 b 436 -12 322 -264 371 -175 l 717 729 z "},"ŷ":{"ha":732,"x_min":0,"x_max":0,"o":"m 353 953 l 501 799 l 625 799 l 436 1028 l 268 1028 l 79 799 l 203 799 z m 579 729 l 369 183 l 156 729 l 13 729 l 301 7 l 299 0 b 182 -139 268 -71 244 -139 b 60 -94 136 -139 88 -115 l 60 -222 b 197 -264 88 -246 150 -264 b 436 -12 322 -264 371 -175 l 717 729 z "},"ÿ":{"ha":732,"x_min":0,"x_max":0,"o":"m 197 822 b 285 908 246 822 285 858 b 197 997 285 957 246 997 b 111 908 147 997 111 957 b 197 822 111 858 147 822 z m 533 822 b 621 908 582 822 621 858 b 533 997 621 957 582 997 b 446 908 483 997 446 957 b 533 822 446 858 483 822 z m 579 729 l 369 183 l 156 729 l 13 729 l 301 7 l 299 0 b 182 -139 268 -71 244 -139 b 60 -94 136 -139 88 -115 l 60 -222 b 197 -264 88 -246 150 -264 b 436 -12 322 -264 371 -175 l 717 729 z "},"ỳ":{"ha":732,"x_min":0,"x_max":0,"o":"m 449 799 l 263 1028 l 83 1028 l 340 799 z m 579 729 l 369 183 l 156 729 l 13 729 l 301 7 l 299 0 b 182 -139 268 -71 244 -139 b 60 -94 136 -139 88 -115 l 60 -222 b 197 -264 88 -246 150 -264 b 436 -12 322 -264 371 -175 l 717 729 z "},"z":{"ha":736,"x_min":0,"x_max":0,"o":"m 53 729 l 53 610 l 544 610 l 53 144 l 53 -1 l 683 -1 l 683 118 l 193 118 l 683 585 l 683 729 z "},"ź":{"ha":736,"x_min":0,"x_max":0,"o":"m 649 1028 l 468 1028 l 282 799 l 390 799 z m 53 729 l 53 610 l 544 610 l 53 144 l 53 -1 l 683 -1 l 683 118 l 193 118 l 683 585 l 683 729 z "},"ž":{"ha":736,"x_min":0,"x_max":0,"o":"m 282 799 l 450 799 l 639 1028 l 515 1028 l 367 874 l 217 1028 l 93 1028 z m 53 729 l 53 610 l 544 610 l 53 144 l 53 -1 l 683 -1 l 683 118 l 193 118 l 683 585 l 683 729 z "},"ż":{"ha":736,"x_min":0,"x_max":0,"o":"m 369 817 b 461 910 419 817 461 858 b 369 1001 461 960 419 1001 b 278 910 318 1001 278 960 b 369 817 278 858 318 817 z m 53 729 l 53 610 l 544 610 l 53 144 l 53 -1 l 683 -1 l 683 118 l 193 118 l 683 585 l 683 729 z "},"ﬁ":{"ha":897,"x_min":0,"x_max":0,"o":"m 728 818 b 821 910 781 818 821 857 b 728 1003 821 963 781 1003 b 635 910 674 1003 635 963 b 728 818 635 857 674 818 z m 388 989 b 182 736 250 989 182 897 l 182 729 l 13 729 l 13 622 l 182 622 l 182 0 l 321 0 l 321 622 l 547 622 l 547 729 l 321 729 l 321 736 b 428 879 321 850 364 879 b 547 826 476 879 518 857 l 547 924 b 388 989 518 963 453 989 z m 658 0 l 797 0 l 797 729 l 658 729 z "},"ﬂ":{"ha":897,"x_min":0,"x_max":0,"o":"m 388 989 b 182 736 250 989 182 897 l 182 729 l 13 729 l 13 622 l 182 622 l 182 0 l 321 0 l 321 622 l 547 622 l 547 729 l 321 729 l 321 736 b 428 879 321 850 364 879 b 547 826 476 879 518 857 l 547 924 b 388 989 518 963 453 989 z m 658 972 l 658 0 l 797 0 l 797 972 z "},"ª":{"ha":576,"x_min":0,"x_max":0,"o":"m 236 796 b 71 656 153 776 71 739 b 199 546 71 599 113 546 b 360 679 285 546 335 601 l 360 556 l 472 556 l 472 818 b 275 983 472 922 392 983 b 76 806 165 983 78 921 l 186 806 b 276 903 186 861 214 903 b 360 839 342 903 360 857 l 360 826 z m 243 622 b 186 668 204 622 186 647 b 256 732 186 693 210 717 l 360 771 b 243 622 360 714 317 622 z m 47 483 l 47 403 l 514 403 l 514 483 z "},"º":{"ha":524,"x_min":0,"x_max":0,"o":"m 42 765 b 263 546 42 639 132 546 b 482 767 392 546 482 638 b 263 983 482 893 392 983 b 42 765 132 983 42 893 z m 369 767 b 263 628 369 688 325 628 b 154 767 199 628 154 688 b 263 901 154 843 199 901 b 369 767 325 901 369 843 z m 29 483 l 29 403 l 496 403 l 496 483 z "},"Δ":{"ha":882,"x_min":0,"x_max":0,"o":"m 504 972 l 379 972 l 28 88 l 28 0 l 854 0 l 854 86 z m 183 125 l 442 807 l 700 125 z "},"Ω":{"ha":1118,"x_min":0,"x_max":0,"o":"m 843 119 b 1028 499 956 197 1028 326 b 558 988 1028 779 835 988 b 88 499 278 988 88 779 b 272 119 88 326 160 197 l 64 119 l 64 0 l 469 0 l 469 119 b 229 486 325 158 229 307 b 558 864 229 703 360 864 b 886 488 757 864 886 700 b 646 119 886 307 790 158 l 646 0 l 1056 0 l 1056 119 z "},"μ":{"ha":901,"x_min":0,"x_max":0,"o":"m 781 171 l 781 729 l 642 729 l 642 414 b 415 108 642 272 582 108 b 240 385 239 108 240 308 l 240 729 l 100 729 l 100 -254 l 239 -254 l 239 46 b 396 -17 278 7 329 -17 b 642 178 531 -17 607 60 l 642 133 b 843 0 642 24 728 0 l 843 106 b 781 171 806 106 781 126 z "},"π":{"ha":915,"x_min":0,"x_max":0,"o":"m 885 604 l 885 729 l 18 729 l 18 604 l 228 604 b 168 508 182 604 168 551 l 168 0 l 307 0 l 307 604 l 583 604 l 583 179 b 824 10 583 26 721 -26 l 824 125 b 722 203 758 106 722 149 l 722 604 z "},"⁄":{"ha":179,"x_min":0,"x_max":0,"o":"m 375 972 l -267 0 l -200 0 l 442 972 z "},"½":{"ha":1210,"x_min":0,"x_max":0,"o":"m 194 417 l 290 417 l 290 972 l 164 972 b 40 825 163 872 101 828 l 40 728 b 194 883 142 731 181 801 z m 829 972 l 188 0 l 254 0 l 896 972 z m 824 88 b 960 215 838 178 888 189 b 1151 392 1071 256 1151 286 b 942 563 1151 486 1075 563 b 718 340 790 563 718 457 l 818 340 b 947 481 818 444 876 481 b 1053 399 1000 481 1053 450 b 956 297 1053 338 1004 315 b 719 35 839 254 724 222 l 719 0 l 1160 0 l 1160 88 z "},"¼":{"ha":1129,"x_min":0,"x_max":0,"o":"m 193 417 l 290 417 l 290 972 l 163 972 b 39 825 161 872 100 828 l 39 728 b 193 881 139 731 179 799 z m 828 972 l 186 0 l 253 0 l 894 972 z m 1083 239 l 1022 239 l 1022 556 l 868 556 b 599 239 785 406 657 282 l 599 154 l 924 154 l 924 0 l 1022 0 l 1022 154 l 1083 154 z m 718 239 b 924 489 768 281 858 375 l 924 239 z "},"¾":{"ha":1264,"x_min":0,"x_max":0,"o":"m 492 576 b 365 708 492 644 444 689 b 467 818 432 725 467 761 b 264 979 467 911 383 979 b 51 783 135 979 51 897 l 147 783 b 261 899 147 854 192 899 b 372 815 324 899 372 865 b 233 742 372 767 319 742 l 233 675 b 394 582 333 675 394 640 b 271 492 394 526 344 492 b 143 610 189 492 143 539 l 46 610 b 271 410 46 488 132 410 b 492 576 401 410 492 476 z m 943 972 l 301 0 l 368 0 l 1010 972 z m 1222 239 l 1161 239 l 1161 556 l 1007 556 b 739 239 925 406 796 282 l 739 154 l 1063 154 l 1063 0 l 1161 0 l 1161 154 l 1222 154 z m 858 239 b 1063 488 908 281 997 375 l 1063 239 z "},"⅛":{"ha":1178,"x_min":0,"x_max":0,"o":"m 194 417 l 290 417 l 290 972 l 164 972 b 40 825 163 872 101 828 l 40 728 b 194 883 142 731 181 801 z m 818 972 l 176 0 l 244 0 l 886 972 z m 1035 294 b 1108 411 1081 319 1108 361 b 919 563 1108 499 1031 563 b 726 411 807 563 726 499 b 803 294 726 363 756 321 b 704 158 742 267 704 217 b 921 -7 704 63 793 -7 b 1131 158 1044 -7 1131 63 b 1035 294 1131 217 1094 267 z m 921 482 b 1015 406 976 482 1015 451 b 921 318 1015 353 976 318 b 819 406 861 318 819 353 b 921 482 819 451 861 482 z m 919 76 b 799 165 849 76 799 111 b 919 264 799 225 849 264 b 1036 165 989 264 1036 225 b 919 76 1036 111 989 76 z "},"⅜":{"ha":1296,"x_min":0,"x_max":0,"o":"m 490 576 b 365 708 490 644 443 689 b 465 818 432 725 465 761 b 263 979 465 911 382 979 b 50 783 133 979 50 897 l 146 783 b 260 899 146 854 190 899 b 371 815 322 899 371 865 b 233 742 371 767 318 742 l 233 675 b 393 582 333 675 393 640 b 269 492 393 526 343 492 b 142 610 189 492 142 539 l 44 610 b 271 410 44 488 132 410 b 490 576 400 410 490 476 z m 942 972 l 300 0 l 367 0 l 1008 972 z m 1157 294 b 1231 411 1203 319 1231 361 b 1042 563 1231 499 1153 563 b 849 411 929 563 849 499 b 925 294 849 363 878 321 b 826 158 864 267 826 217 b 1043 -7 826 63 915 -7 b 1253 158 1167 -7 1253 63 b 1157 294 1253 217 1217 267 z m 1043 482 b 1138 406 1099 482 1138 451 b 1043 318 1138 353 1099 318 b 942 406 983 318 942 353 b 1043 482 942 451 983 482 z m 1042 76 b 921 165 971 76 921 111 b 1042 264 921 225 971 264 b 1158 165 1111 264 1158 225 b 1042 76 1158 111 1111 76 z "},"⅝":{"ha":1289,"x_min":0,"x_max":0,"o":"m 493 625 b 304 810 493 739 415 810 b 158 735 232 810 178 772 l 193 888 l 468 888 l 468 972 l 111 972 l 46 689 l 147 689 b 283 757 176 731 229 757 b 393 626 350 757 393 715 b 274 492 393 539 349 492 b 142 614 194 492 142 536 l 42 614 b 272 410 42 492 147 410 b 493 625 401 410 493 496 z m 936 972 l 294 0 l 361 0 l 1003 972 z m 1150 294 b 1222 411 1196 319 1222 361 b 1035 563 1222 499 1146 563 b 842 411 921 563 842 499 b 917 294 842 363 869 319 b 819 158 857 267 819 217 b 1035 -7 819 63 908 -7 b 1246 158 1160 -7 1246 63 b 1150 294 1246 217 1210 267 z m 933 406 b 1035 482 933 451 976 482 b 1131 406 1092 482 1131 451 b 1035 318 1131 353 1092 318 b 933 406 976 318 933 353 z m 1035 76 b 913 165 964 76 913 111 b 1035 264 913 225 964 264 b 1151 165 1103 264 1151 225 b 1035 76 1151 111 1103 76 z "},"⅞":{"ha":1088,"x_min":0,"x_max":0,"o":"m 190 417 b 472 883 256 572 338 728 l 472 972 l 49 972 l 49 883 l 364 883 b 78 417 229 728 147 572 z m 735 972 l 93 0 l 160 0 l 801 972 z m 950 294 b 1022 411 994 319 1022 361 b 833 563 1022 499 944 563 b 640 411 721 563 640 499 b 717 294 640 363 669 321 b 618 158 656 267 618 217 b 835 -7 618 63 707 -7 b 1046 158 960 -7 1046 63 b 950 294 1046 217 1010 267 z m 835 482 b 929 406 890 482 929 451 b 835 318 929 353 890 318 b 733 406 775 318 733 353 b 835 482 733 451 775 482 z m 833 76 b 713 165 763 76 713 111 b 833 264 713 225 763 264 b 950 165 903 264 950 225 b 833 76 950 111 903 76 z "},".":{"ha":324,"x_min":0,"x_max":0,"o":"m 65 82 b 163 -15 65 28 108 -15 b 260 82 215 -15 260 28 b 163 179 260 136 215 179 b 65 82 108 179 65 136 z "},",":{"ha":329,"x_min":0,"x_max":0,"o":"m 178 -19 l 0 -199 l 126 -199 l 232 -19 b 263 72 246 4 263 36 b 163 172 263 132 217 172 b 67 78 107 172 67 132 b 178 -19 67 26 110 -19 z "},":":{"ha":365,"x_min":0,"x_max":0,"o":"m 85 632 b 182 535 85 579 129 535 b 281 632 236 535 281 579 b 182 729 281 686 236 729 b 85 632 129 729 85 686 z m 85 81 b 182 -17 85 28 129 -17 b 281 81 236 -17 281 28 b 182 178 281 135 236 178 b 85 81 129 178 85 135 z "},";":{"ha":385,"x_min":0,"x_max":0,"o":"m 94 632 b 192 535 94 579 139 535 b 290 632 246 535 290 579 b 192 729 290 686 246 729 b 94 632 139 729 94 686 z m 211 -19 l 33 -199 l 160 -199 l 265 -19 b 296 72 281 4 296 36 b 197 172 296 132 251 172 b 100 78 142 172 100 132 b 211 -19 100 26 143 -19 z "},"…":{"ha":878,"x_min":0,"x_max":0,"o":"m 65 82 b 163 -15 65 28 108 -15 b 260 82 215 -15 260 28 b 163 179 260 136 215 179 b 65 82 108 179 65 136 z m 339 82 b 438 -15 339 28 383 -15 b 535 82 490 -15 535 28 b 438 179 535 136 490 179 b 339 82 383 179 339 136 z m 618 82 b 715 -15 618 28 661 -15 b 813 82 769 -15 813 28 b 715 179 813 136 769 179 b 618 82 661 179 618 136 z "},"!":{"ha":350,"x_min":0,"x_max":0,"o":"m 103 972 l 122 226 l 228 226 l 249 972 z m 85 69 b 175 -22 85 18 124 -22 b 265 69 225 -22 265 18 b 175 160 265 119 225 160 b 85 69 124 160 85 119 z "},"¡":{"ha":336,"x_min":0,"x_max":0,"o":"m 168 717 b 78 625 117 717 78 676 b 168 535 78 575 117 535 b 258 625 218 535 258 575 b 168 717 258 676 218 717 z m 96 -278 l 242 -278 l 221 468 l 115 468 z "},"?":{"ha":765,"x_min":0,"x_max":0,"o":"m 582 700 b 258 251 582 519 260 567 l 396 251 b 724 700 396 499 724 436 b 390 989 724 871 576 989 b 40 639 178 989 40 847 l 182 639 b 390 871 182 786 254 871 b 582 700 493 871 582 811 z m 233 76 b 328 -19 233 24 276 -19 b 422 76 379 -19 422 24 b 328 169 422 128 379 169 b 233 76 276 169 233 128 z "},"¿":{"ha":757,"x_min":0,"x_max":0,"o":"m 528 632 b 433 728 528 685 485 728 b 339 632 382 728 339 685 b 433 539 339 581 382 539 b 528 632 485 539 528 581 z m 179 8 b 503 457 179 189 501 142 l 365 457 b 38 8 365 210 38 272 b 371 -281 38 -162 185 -281 b 721 69 583 -281 721 -139 l 579 69 b 371 -162 579 -78 507 -162 b 179 8 268 -162 179 -103 z "},"·":{"ha":350,"x_min":0,"x_max":0,"o":"m 78 369 b 175 271 78 315 121 271 b 272 369 228 271 272 315 b 175 465 272 422 228 465 b 78 369 121 465 78 422 z "},"•":{"ha":539,"x_min":0,"x_max":0,"o":"m 100 347 b 269 178 100 253 176 178 b 439 347 363 178 439 253 b 269 517 439 440 363 517 b 100 347 176 517 100 440 z "},"*":{"ha":613,"x_min":0,"x_max":0,"o":"m 565 761 l 531 865 l 335 775 l 360 989 l 251 989 l 278 775 l 81 865 l 49 761 l 261 719 l 113 561 l 200 499 l 307 683 l 413 499 l 501 563 l 353 719 z "},"#":{"ha":1582,"x_min":0,"x_max":0,"o":"m 1486 638 l 1549 763 l 1292 763 l 1392 972 l 1250 972 l 1150 763 l 719 763 l 819 972 l 678 972 l 578 763 l 272 763 l 210 638 l 517 638 l 376 343 l 99 343 l 36 218 l 315 218 l 211 0 l 354 0 l 458 218 l 888 218 l 783 0 l 926 0 l 1031 218 l 1313 218 l 1375 343 l 1090 343 l 1232 638 z m 949 343 l 518 343 l 660 638 l 1089 638 z "},"/":{"ha":676,"x_min":0,"x_max":0,"o":"m 496 972 l 29 0 l 179 0 l 644 972 z "},"\\":{"ha":672,"x_min":0,"x_max":0,"o":"m 32 972 l 497 0 l 642 0 l 176 972 z "},"(":{"ha":521,"x_min":0,"x_max":0,"o":"m 54 424 b 506 -275 54 88 256 -217 l 506 -186 b 168 424 326 -128 168 163 b 506 1018 168 681 326 960 l 506 1107 b 54 424 256 1049 54 760 z "},")":{"ha":521,"x_min":0,"x_max":0,"o":"m 15 -281 b 468 418 267 -222 468 82 b 15 1101 468 754 267 1043 l 15 1013 b 353 418 194 954 353 675 b 15 -192 353 157 194 -133 z "},"{":{"ha":499,"x_min":0,"x_max":0,"o":"m 272 628 b 467 874 272 792 363 874 l 467 993 b 168 644 269 993 168 892 b 14 426 168 504 106 426 l 14 290 b 168 71 106 290 168 211 b 467 -278 168 -176 269 -278 l 467 -158 b 272 88 363 -158 272 -76 b 171 358 272 243 222 321 b 272 628 222 396 272 472 z "},"}":{"ha":499,"x_min":0,"x_max":0,"o":"m 331 644 b 32 993 331 892 229 993 l 32 874 b 226 628 135 874 226 792 b 328 358 226 472 276 396 b 226 88 276 321 226 243 b 32 -158 226 -76 135 -158 l 32 -278 b 331 71 229 -278 331 -176 b 485 290 331 211 393 290 l 485 426 b 331 644 393 426 331 504 z "},"[":{"ha":536,"x_min":0,"x_max":0,"o":"m 508 942 l 508 1046 l 111 1046 l 111 -204 l 508 -204 l 508 -100 l 236 -100 l 236 942 z "},"]":{"ha":536,"x_min":0,"x_max":0,"o":"m 425 1047 l 28 1047 l 28 943 l 300 943 l 300 -99 l 28 -99 l 28 -203 l 425 -203 z "},"-":{"ha":589,"x_min":0,"x_max":0,"o":"m 86 415 l 86 314 l 503 314 l 503 415 z "},"­":{"ha":589,"x_min":0,"x_max":0,"o":"m 86 415 l 86 314 l 503 314 l 503 415 z "},"–":{"ha":728,"x_min":0,"x_max":0,"o":"m 86 421 l 86 308 l 642 308 l 642 421 z "},"—":{"ha":1144,"x_min":0,"x_max":0,"o":"m 86 421 l 86 308 l 1058 308 l 1058 421 z "},"_":{"ha":957,"x_min":0,"x_max":0,"o":"m 61 0 l 61 -54 l 894 -54 l 894 0 z "},"‚":{"ha":329,"x_min":0,"x_max":0,"o":"m 178 -19 l 0 -199 l 126 -199 l 232 -19 b 263 72 246 4 263 36 b 163 172 263 132 217 172 b 67 78 107 172 67 132 b 178 -19 67 26 110 -19 z "},"„":{"ha":551,"x_min":0,"x_max":0,"o":"m 176 -17 l 0 -196 l 126 -196 l 231 -17 b 261 75 246 8 261 39 b 163 176 261 135 217 176 b 67 81 107 176 67 135 b 176 -17 67 29 108 -17 z m 401 -17 l 224 -196 l 350 -196 l 456 -17 b 486 75 469 8 486 39 b 386 176 486 135 440 176 b 290 81 331 176 290 135 b 401 -17 290 29 333 -17 z "},"“":{"ha":556,"x_min":0,"x_max":0,"o":"m 133 924 l 311 1103 l 185 1103 l 79 924 b 49 832 64 899 49 868 b 147 731 49 772 94 731 b 244 826 204 731 244 772 b 133 924 244 878 201 924 z m 357 924 l 535 1103 l 408 1103 l 303 924 b 272 832 289 899 272 868 b 372 731 272 772 318 731 b 468 826 428 731 468 772 b 357 924 468 878 425 924 z "},"”":{"ha":569,"x_min":0,"x_max":0,"o":"m 221 914 l 43 733 l 169 733 l 275 914 b 306 1006 290 938 306 969 b 207 1106 306 1065 260 1106 b 110 1010 150 1106 110 1064 b 221 914 110 958 153 914 z m 444 914 l 268 733 l 394 733 l 499 914 b 529 1006 514 938 529 969 b 431 1106 529 1065 485 1106 b 335 1010 375 1106 335 1064 b 444 914 335 958 378 914 z "},"‘":{"ha":329,"x_min":0,"x_max":0,"o":"m 133 925 l 311 1104 l 185 1104 l 79 925 b 49 833 64 900 49 869 b 147 732 49 774 94 732 b 244 828 204 732 244 774 b 133 925 244 879 201 925 z "},"’":{"ha":343,"x_min":0,"x_max":0,"o":"m 219 915 l 42 735 l 168 735 l 274 915 b 304 1007 288 939 304 971 b 204 1107 304 1067 258 1107 b 108 1011 149 1107 108 1065 b 219 915 108 960 151 915 z "},"«":{"ha":760,"x_min":0,"x_max":0,"o":"m 410 685 l 410 831 l 44 471 l 44 318 l 410 -50 l 410 90 l 113 390 z m 694 831 l 329 471 l 329 318 l 694 -50 l 694 90 l 397 390 l 694 685 z "},"»":{"ha":761,"x_min":0,"x_max":0,"o":"m 431 317 l 431 469 l 65 838 l 65 697 l 363 397 l 65 103 l 65 -43 z m 350 838 l 350 697 l 647 397 l 350 103 l 350 -43 l 715 317 l 715 469 z "},"‹":{"ha":475,"x_min":0,"x_max":0,"o":"m 410 832 l 44 472 l 44 319 l 410 -49 l 410 92 l 113 392 l 410 686 z "},"›":{"ha":475,"x_min":0,"x_max":0,"o":"m 65 833 l 65 693 l 363 393 l 65 99 l 65 -47 l 431 313 l 431 465 z "},"\"":{"ha":514,"x_min":0,"x_max":0,"o":"m 72 1042 l 89 694 l 179 694 l 196 1042 z m 317 1042 l 333 694 l 424 694 l 442 1042 z "},"'":{"ha":268,"x_min":0,"x_max":0,"o":"m 72 1042 l 89 694 l 179 694 l 196 1042 z "}," ":{"ha":328,"x_min":0,"x_max":0,"o":""},"¢":{"ha":817,"x_min":0,"x_max":0,"o":"m 463 215 l 463 753 b 628 569 556 736 624 665 l 767 569 b 463 863 761 729 638 846 l 463 972 l 399 972 l 399 865 b 58 483 201 856 58 696 b 399 103 58 275 201 114 l 399 0 l 463 0 l 463 104 b 767 385 640 121 765 233 l 628 385 b 463 215 626 294 558 229 z m 197 483 b 399 754 197 629 282 740 l 399 214 b 197 483 283 229 197 343 z "},"¤":{"ha":808,"x_min":0,"x_max":0,"o":"m 682 422 b 633 579 682 481 664 535 l 746 693 l 675 764 l 561 650 b 404 700 517 682 463 700 b 247 651 346 700 292 682 l 135 764 l 63 693 l 175 581 b 126 422 144 535 126 481 b 175 264 126 364 144 310 l 63 151 l 135 81 l 247 193 b 404 144 292 163 346 144 b 561 194 463 144 517 163 l 675 81 l 746 151 l 633 265 b 682 422 664 310 682 364 z m 226 422 b 404 600 226 521 306 600 b 581 422 501 600 581 521 b 404 244 581 325 501 244 b 226 422 306 244 226 325 z "},"$":{"ha":904,"x_min":0,"x_max":0,"o":"m 853 267 b 476 560 853 464 649 522 l 476 869 b 672 625 611 857 672 772 l 818 625 b 476 988 818 801 719 971 l 476 1081 l 401 1081 l 401 988 b 74 700 182 975 74 840 b 401 433 74 522 247 468 l 401 108 b 194 381 292 131 194 208 l 49 381 b 401 -12 49 154 183 11 l 401 -114 l 476 -114 l 476 -17 b 853 267 706 -14 853 101 z m 219 713 b 401 868 219 786 283 856 l 401 578 b 219 713 288 606 219 635 z m 476 101 l 476 418 b 706 260 625 383 706 353 b 476 101 706 156 593 103 z "},"ƒ":{"ha":874,"x_min":0,"x_max":0,"o":"m 717 872 b 835 826 768 872 806 854 l 835 942 b 689 989 800 972 746 989 b 433 736 535 989 472 872 l 390 572 l 149 572 l 149 467 l 363 467 l 325 321 l 303 250 b 158 113 267 144 224 113 b 40 160 107 113 69 132 l 40 44 b 186 -4 75 13 129 -4 b 444 250 340 -4 403 114 l 464 321 l 501 467 l 735 467 l 735 572 l 529 572 l 572 736 b 717 872 603 840 651 872 z "},"£":{"ha":856,"x_min":0,"x_max":0,"o":"m 713 210 b 557 101 671 142 622 101 b 314 179 468 101 419 179 l 308 179 b 351 328 336 224 351 275 b 335 433 351 368 344 403 l 682 433 l 710 511 l 303 511 b 257 671 281 563 257 610 b 472 874 257 794 353 874 b 654 732 589 874 640 797 l 774 801 b 471 986 751 886 643 986 b 129 681 269 986 129 858 b 178 511 129 607 153 558 l 67 511 l 39 433 l 214 433 b 226 353 221 410 226 383 b 69 44 226 267 179 151 l 129 -14 b 304 79 175 43 226 79 b 604 -17 429 79 478 -17 b 826 131 675 -17 750 8 z "},"¥":{"ha":1046,"x_min":0,"x_max":0,"o":"m 1004 972 l 822 972 l 524 546 l 221 972 l 39 972 l 388 504 l 104 504 l 104 422 l 447 422 l 447 363 l 104 363 l 104 281 l 447 281 l 447 0 l 599 0 l 599 281 l 946 281 l 946 363 l 599 363 l 599 422 l 946 422 l 946 504 l 657 504 z "},"≡":{"ha":989,"x_min":0,"x_max":0,"o":"m 88 757 l 88 651 l 901 651 l 901 757 z m 88 543 l 88 436 l 901 436 l 901 543 z m 88 326 l 88 219 l 901 219 l 901 326 z "},"+":{"ha":794,"x_min":0,"x_max":0,"o":"m 753 540 l 457 540 l 457 842 l 340 842 l 340 540 l 43 540 l 43 433 l 340 433 l 340 132 l 457 132 l 457 433 l 753 433 z "},"−":{"ha":997,"x_min":0,"x_max":0,"o":"m 92 539 l 92 433 l 906 433 l 906 539 z "},"×":{"ha":825,"x_min":0,"x_max":0,"o":"m 764 751 l 682 833 l 417 568 l 149 838 l 65 756 l 335 486 l 65 218 l 149 135 l 417 404 l 682 139 l 764 221 l 499 486 z "},"÷":{"ha":944,"x_min":0,"x_max":0,"o":"m 374 760 b 471 663 374 706 417 663 b 568 760 525 663 568 706 b 471 857 568 814 525 857 b 374 760 417 857 374 814 z m 65 542 l 65 435 l 879 435 l 879 542 z m 374 208 b 471 111 374 154 417 111 b 568 208 525 111 568 154 b 471 306 568 263 525 306 b 374 208 417 306 374 263 z "},"=":{"ha":997,"x_min":0,"x_max":0,"o":"m 92 729 l 92 624 l 906 624 l 906 729 z m 92 304 l 92 199 l 906 199 l 906 304 z "},"≠":{"ha":1013,"x_min":0,"x_max":0,"o":"m 906 624 l 906 729 l 764 729 l 872 869 l 744 869 l 636 729 l 92 729 l 92 624 l 554 624 l 306 304 l 92 304 l 92 199 l 224 199 l 140 92 l 268 92 l 351 199 l 906 199 l 906 304 l 433 304 l 682 624 z "},">":{"ha":724,"x_min":0,"x_max":0,"o":"m 64 833 l 64 711 l 569 488 l 64 264 l 64 143 l 667 410 l 667 567 z "},"<":{"ha":724,"x_min":0,"x_max":0,"o":"m 660 833 l 57 567 l 57 410 l 660 143 l 660 264 l 154 488 l 660 711 z "},"≥":{"ha":764,"x_min":0,"x_max":0,"o":"m 686 521 l 686 678 l 83 944 l 83 822 l 590 600 l 83 376 l 83 256 z m 88 157 l 88 51 l 689 51 l 689 157 z "},"≤":{"ha":764,"x_min":0,"x_max":0,"o":"m 681 944 l 78 678 l 78 521 l 681 256 l 681 376 l 174 600 l 681 822 z m 74 51 l 676 51 l 676 157 l 74 157 z "},"±":{"ha":856,"x_min":0,"x_max":0,"o":"m 488 632 l 488 846 l 368 846 l 368 632 l 81 632 l 81 525 l 368 525 l 368 315 l 488 315 l 488 525 l 775 525 l 775 632 z m 81 125 l 775 125 l 775 232 l 81 232 z "},"≈":{"ha":742,"x_min":0,"x_max":0,"o":"m 249 593 b 489 499 324 593 404 499 b 653 671 557 499 653 547 l 578 671 b 497 594 574 633 547 594 b 257 688 432 594 351 688 b 90 515 178 688 90 631 l 165 515 b 249 593 171 556 203 593 z m 249 353 b 489 258 324 353 404 258 b 653 432 557 258 653 308 l 578 432 b 497 354 574 394 547 354 b 257 449 432 354 351 449 b 90 275 178 449 90 390 l 165 275 b 249 353 171 315 203 353 z "},"~":{"ha":735,"x_min":0,"x_max":0,"o":"m 246 418 b 486 325 321 418 401 325 b 650 497 554 325 650 374 l 575 497 b 494 419 571 460 544 419 b 254 514 429 419 349 514 b 88 342 175 514 88 457 l 163 342 b 246 418 168 382 200 418 z "},"¬":{"ha":786,"x_min":0,"x_max":0,"o":"m 78 486 l 78 361 l 550 361 l 550 99 l 689 99 l 689 486 z "},"^":{"ha":776,"x_min":0,"x_max":0,"o":"m 758 243 l 492 972 l 285 972 l 18 243 l 158 243 l 389 875 l 618 243 z "},"∞":{"ha":1169,"x_min":0,"x_max":0,"o":"m 844 746 b 585 590 725 746 646 669 b 325 746 525 669 446 746 b 63 486 178 746 63 639 b 325 226 63 333 178 226 b 585 382 446 226 525 303 b 844 226 646 303 725 226 b 1107 486 992 226 1107 333 b 844 746 1107 639 992 746 z m 338 344 b 196 486 256 344 196 411 b 338 628 196 561 256 628 b 513 488 418 628 481 536 l 511 486 b 513 485 511 486 511 485 b 338 344 481 435 418 344 z m 832 344 b 657 485 751 344 689 435 b 658 486 658 485 658 486 l 657 488 b 832 628 689 536 751 628 b 975 486 914 628 975 561 b 832 344 975 411 914 344 z "},"∫":{"ha":771,"x_min":0,"x_max":0,"o":"m 629 989 b 372 736 468 989 397 872 l 281 146 l 265 74 b 114 -64 233 -32 179 -64 b -4 -17 63 -64 25 -44 l -4 -132 b 142 -179 31 -164 85 -179 b 407 74 296 -179 381 -62 l 419 146 l 511 736 b 657 872 531 840 592 872 b 775 826 708 872 746 854 l 775 942 b 629 989 740 972 686 989 z "},"∏":{"ha":954,"x_min":0,"x_max":0,"o":"m 907 847 l 907 972 l 40 972 l 40 847 l 251 847 b 190 751 204 847 190 794 l 190 0 l 329 0 l 329 847 l 607 847 l 607 179 b 847 10 607 26 743 -26 l 847 125 b 746 203 781 106 746 149 l 746 847 z "},"∑":{"ha":747,"x_min":0,"x_max":0,"o":"m 692 972 l 51 972 l 51 885 l 350 486 l 51 88 l 51 0 l 692 0 l 692 125 l 235 125 l 496 486 l 235 847 l 692 847 z "},"√":{"ha":1138,"x_min":0,"x_max":0,"o":"m 1146 972 l 658 972 l 300 -60 l 149 457 l 8 457 l 188 -156 l 407 -156 l 756 847 l 1146 847 z "},"µ":{"ha":901,"x_min":0,"x_max":0,"o":"m 781 171 l 781 729 l 642 729 l 642 414 b 415 108 642 272 582 108 b 240 385 239 108 240 308 l 240 729 l 100 729 l 100 -254 l 239 -254 l 239 46 b 396 -17 278 7 329 -17 b 642 178 531 -17 607 60 l 642 133 b 843 0 642 24 728 0 l 843 106 b 781 171 806 106 781 126 z "},"∂":{"ha":785,"x_min":0,"x_max":0,"o":"m 50 361 b 374 -17 50 153 172 -17 b 725 407 599 -17 725 151 b 124 1110 725 706 536 1106 l 124 994 b 576 604 393 989 556 751 b 361 746 564 643 517 746 b 50 361 169 746 50 568 z m 593 368 b 388 83 593 225 522 83 b 189 368 258 83 189 225 b 381 646 189 506 257 646 b 593 368 544 646 593 497 z "},"%":{"ha":1107,"x_min":0,"x_max":0,"o":"m 65 735 b 299 476 65 592 164 476 b 531 735 435 476 531 593 b 299 990 531 875 435 990 b 65 735 164 990 65 876 z m 900 972 l 64 0 l 210 0 l 1044 972 z m 424 735 b 299 578 424 650 372 578 b 174 735 224 578 174 649 b 299 890 174 818 225 890 b 424 735 374 890 424 818 z m 585 240 b 818 -17 585 97 683 -17 b 1050 240 954 -17 1050 99 b 818 497 1050 381 954 497 b 585 240 683 497 585 382 z m 943 240 b 818 83 943 156 892 83 b 693 240 743 83 693 154 b 818 399 693 325 744 399 b 943 240 893 399 943 325 z "},"‰":{"ha":1611,"x_min":0,"x_max":0,"o":"m 65 735 b 299 476 65 592 164 476 b 531 735 435 476 531 593 b 299 990 531 875 435 990 b 65 735 164 990 65 876 z m 900 972 l 64 0 l 210 0 l 1044 972 z m 424 735 b 299 578 424 650 372 578 b 174 735 224 578 174 649 b 299 890 174 818 225 890 b 424 735 374 890 424 818 z m 585 240 b 818 -17 585 97 683 -17 b 1050 240 954 -17 1050 99 b 818 497 1050 381 954 497 b 585 240 683 497 585 382 z m 1090 240 b 1322 -17 1090 97 1188 -17 b 1556 240 1458 -17 1556 99 b 1322 497 1556 381 1458 497 b 1090 240 1188 497 1090 382 z m 943 240 b 818 83 943 156 892 83 b 693 240 743 83 693 154 b 818 399 693 325 744 399 b 943 240 893 399 943 325 z m 1447 240 b 1322 83 1447 156 1396 83 b 1199 240 1249 83 1199 154 b 1322 399 1199 325 1249 399 b 1447 240 1397 399 1447 325 z "},"↑":{"ha":1088,"x_min":0,"x_max":0,"o":"m 1029 583 l 544 1068 l 58 583 l 142 500 l 485 843 l 485 11 l 601 11 l 601 844 l 947 500 z "},"↗":{"ha":994,"x_min":0,"x_max":0,"o":"m 850 728 l 164 728 l 164 611 l 650 611 l 61 22 l 143 -60 l 733 531 l 733 42 l 850 42 z "},"→":{"ha":1192,"x_min":0,"x_max":0,"o":"m 649 971 l 567 889 l 911 544 l 76 544 l 76 428 l 911 428 l 567 83 l 649 1 l 1135 486 z "},"↘":{"ha":990,"x_min":0,"x_max":0,"o":"m 733 686 l 733 199 l 144 789 l 61 706 l 651 117 l 164 117 l 164 0 l 850 0 l 850 686 z "},"↓":{"ha":1085,"x_min":0,"x_max":0,"o":"m 946 549 l 600 203 l 600 1038 l 483 1038 l 483 204 l 140 549 l 57 465 l 460 63 l 543 -19 l 1028 465 z "},"↙":{"ha":994,"x_min":0,"x_max":0,"o":"m 935 699 l 851 781 l 263 192 l 263 678 l 146 678 l 146 -8 l 832 -8 l 832 108 l 346 108 z "},"←":{"ha":1192,"x_min":0,"x_max":0,"o":"m 1114 544 l 281 544 l 625 889 l 543 971 l 57 486 l 543 1 l 625 83 l 281 428 l 1114 428 z "},"↖":{"ha":994,"x_min":0,"x_max":0,"o":"m 935 22 l 346 611 l 832 611 l 832 728 l 146 728 l 146 42 l 263 42 l 263 529 l 851 -60 z "},"↔":{"ha":2019,"x_min":0,"x_max":0,"o":"m 1961 486 l 1476 971 l 1394 889 l 1739 544 l 281 544 l 625 889 l 543 971 l 57 486 l 543 1 l 625 83 l 281 428 l 1739 428 l 1394 83 l 1476 1 z "},"↕":{"ha":1099,"x_min":0,"x_max":0,"o":"m 586 -132 l 586 968 l 978 576 l 1032 631 l 549 1114 l 65 631 l 119 576 l 510 967 l 510 -131 l 119 260 l 65 206 l 549 -278 l 1032 206 l 978 260 z "},"○":{"ha":1208,"x_min":0,"x_max":0,"o":"m 63 486 b 604 -56 63 186 304 -56 b 1146 486 904 -56 1146 186 b 604 1028 1146 786 904 1028 b 63 486 304 1028 63 786 z m 1061 486 b 604 24 1061 232 858 24 b 147 486 350 24 147 232 b 604 949 147 740 350 949 b 1061 486 858 949 1061 740 z "},"◊":{"ha":811,"x_min":0,"x_max":0,"o":"m 465 972 l 346 972 l 40 486 l 346 0 l 465 0 l 771 486 z m 406 96 l 163 486 l 406 876 l 649 486 z "},"☹":{"ha":1142,"x_min":0,"x_max":0,"o":"m 64 488 b 571 -19 64 206 289 -19 b 1078 488 851 -19 1078 206 b 571 994 1078 768 851 994 b 64 488 289 994 64 768 z m 1011 488 b 571 46 1011 243 814 46 b 129 488 326 46 129 243 b 571 928 129 731 326 928 b 1011 488 814 928 1011 731 z m 331 635 b 400 519 331 571 361 519 b 469 635 439 519 469 571 b 400 747 469 696 439 747 b 331 635 361 747 331 696 z m 668 635 b 738 519 668 571 699 519 b 807 635 776 519 807 571 b 738 747 807 696 776 747 b 668 635 699 747 668 696 z m 576 475 b 299 208 443 475 308 385 l 344 208 b 576 425 353 357 468 425 b 807 208 682 425 797 357 l 854 208 b 576 475 843 385 707 475 z "},"☺":{"ha":1142,"x_min":0,"x_max":0,"o":"m 64 488 b 571 -19 64 206 289 -19 b 1078 488 851 -19 1078 206 b 571 994 1078 768 851 994 b 64 488 289 994 64 768 z m 1011 488 b 571 46 1011 243 814 46 b 129 488 326 46 129 243 b 571 928 129 731 326 928 b 1011 488 814 928 1011 731 z m 331 635 b 400 519 331 571 361 519 b 469 635 439 519 469 571 b 400 747 469 696 439 747 b 331 635 361 747 331 696 z m 668 635 b 738 519 668 571 699 519 b 807 635 776 519 807 571 b 738 747 807 696 776 747 b 668 635 699 747 668 696 z m 229 489 b 576 125 239 285 388 125 b 924 489 763 125 913 285 l 876 489 b 576 175 867 313 738 175 b 275 489 413 175 283 313 z "},"♥":{"ha":1035,"x_min":0,"x_max":0,"o":"m 42 643 b 517 72 44 382 506 79 b 993 643 763 225 993 471 b 754 913 993 906 754 913 b 518 675 754 913 521 917 b 281 913 514 917 281 913 b 42 643 281 913 42 906 z "},"@":{"ha":1383,"x_min":0,"x_max":0,"o":"m 690 982 b 51 360 344 982 51 696 b 683 -276 51 7 339 -276 b 1018 -183 806 -276 926 -239 l 982 -99 b 683 -186 904 -150 807 -186 b 151 360 386 -186 151 54 b 690 892 151 650 392 892 b 1224 360 994 892 1224 685 b 1093 81 1224 240 1194 81 b 993 224 1025 81 993 144 l 993 421 b 686 711 993 624 864 711 b 368 446 504 711 374 615 l 507 446 b 686 606 508 550 585 606 b 854 482 821 606 853 517 b 354 165 629 403 354 357 b 590 -17 354 61 463 -22 b 854 175 733 -10 814 67 b 1074 -17 860 117 903 -17 b 1324 360 1285 -17 1324 217 b 690 982 1324 732 1040 982 z m 618 96 b 500 175 554 92 500 128 b 853 385 500 271 642 306 b 618 96 851 283 789 108 z "},"&":{"ha":1029,"x_min":0,"x_max":0,"o":"m 1068 0 l 831 194 b 856 583 889 292 907 424 l 711 583 b 718 286 756 460 751 361 l 399 547 b 289 733 357 582 289 653 b 415 860 289 788 333 860 b 536 714 514 860 536 776 l 685 714 b 415 989 685 888 574 989 b 144 751 268 989 144 894 b 258 510 144 653 201 561 b 68 268 146 467 68 371 b 444 -17 68 86 251 -17 b 750 97 553 -17 665 22 l 865 0 z m 450 113 b 213 285 340 113 213 168 b 310 467 213 360 236 418 l 643 186 b 450 113 586 138 514 113 z "},"¶":{"ha":849,"x_min":0,"x_max":0,"o":"m 796 992 l 386 992 b 39 679 165 990 39 853 b 386 367 39 506 165 368 l 386 -147 l 492 -147 l 492 896 l 575 896 l 575 -147 l 681 -147 l 681 896 l 796 896 z "},"§":{"ha":771,"x_min":0,"x_max":0,"o":"m 594 256 b 717 422 656 285 717 339 b 400 664 717 590 524 643 b 242 771 294 683 242 708 b 372 883 242 847 301 883 b 518 729 485 883 517 807 l 657 729 b 372 989 657 838 590 989 b 103 761 190 989 103 888 b 175 619 103 694 132 650 b 60 454 119 594 60 542 b 365 210 60 292 236 233 b 535 97 457 192 535 169 b 410 -18 535 19 482 -18 b 228 154 354 -18 228 6 l 89 154 b 404 -125 89 22 174 -125 b 674 107 603 -125 674 -7 b 594 256 674 176 642 224 z m 364 329 b 186 469 258 347 186 394 b 235 588 186 522 208 568 b 401 544 288 567 347 554 b 590 407 493 528 590 492 b 538 285 590 360 565 310 b 364 329 482 308 417 319 z "},"©":{"ha":1199,"x_min":0,"x_max":0,"o":"m 58 486 b 600 -56 58 186 300 -56 b 1142 486 900 -56 1142 186 b 600 1028 1142 786 900 1028 b 58 486 300 1028 58 786 z m 1056 486 b 600 24 1056 232 854 24 b 143 486 344 24 143 232 b 600 949 143 740 344 949 b 1056 486 854 949 1056 740 z m 314 478 b 604 178 314 356 388 178 b 871 414 800 178 867 325 l 776 414 b 606 258 771 310 697 258 b 408 478 496 258 408 335 b 604 701 408 622 496 701 b 776 533 699 701 769 642 l 871 533 b 599 781 867 617 803 781 b 314 478 386 781 314 600 z "},"®":{"ha":1199,"x_min":0,"x_max":0,"o":"m 600 1028 b 58 486 300 1028 58 786 b 600 -56 58 186 300 -56 b 1142 486 900 -56 1142 186 b 600 1028 1142 786 900 1028 z m 600 24 b 143 486 344 24 143 232 b 600 949 143 740 344 949 b 1056 486 854 949 1056 740 b 600 24 1056 232 854 24 z m 715 469 b 842 622 778 481 842 521 b 658 785 842 744 749 785 l 369 785 l 369 203 l 464 203 l 464 450 l 631 450 b 760 201 743 450 717 296 l 864 201 b 715 469 807 300 817 461 z m 464 522 l 464 713 l 646 713 b 747 617 719 713 747 676 b 646 522 747 557 719 522 z "},"™":{"ha":1342,"x_min":0,"x_max":0,"o":"m 531 972 l 38 972 l 38 894 l 240 894 l 240 386 l 329 386 l 329 894 l 531 894 z m 1232 972 l 1085 972 l 914 439 l 750 972 l 599 972 l 599 386 l 686 386 l 686 908 l 846 386 l 981 386 l 1144 906 l 1144 386 l 1232 386 z "},"°":{"ha":483,"x_min":0,"x_max":0,"o":"m 47 919 b 242 725 47 813 135 725 b 436 919 349 725 436 813 b 242 1114 436 1026 349 1114 b 47 919 135 1114 47 1026 z m 356 919 b 242 806 356 857 304 806 b 128 919 179 806 128 857 b 242 1033 128 982 179 1033 b 356 919 304 1033 356 982 z "},"|":{"ha":344,"x_min":0,"x_max":0,"o":"m 111 1111 l 111 -278 l 232 -278 l 232 1111 z "},"¦":{"ha":344,"x_min":0,"x_max":0,"o":"m 103 1111 l 103 618 l 242 618 l 242 1111 z m 103 215 l 103 -278 l 242 -278 l 242 215 z "},"†":{"ha":618,"x_min":0,"x_max":0,"o":"m 379 715 l 379 1042 l 240 1042 l 240 715 l 42 729 l 42 604 l 240 617 l 240 389 l 274 -69 l 346 -69 l 379 389 l 379 617 l 576 604 l 576 729 z "},"‡":{"ha":629,"x_min":0,"x_max":0,"o":"m 582 604 l 582 729 l 385 715 l 385 1042 l 246 1042 l 246 715 l 47 729 l 47 604 l 246 617 l 246 504 l 47 518 l 47 393 l 246 406 l 246 392 l 279 -69 l 351 -69 l 385 392 l 385 406 l 582 393 l 582 518 l 385 504 l 385 617 z "},"̈":{"ha":0,"x_min":0,"x_max":0,"o":"m -669 908 b -583 822 -669 858 -633 822 b -496 908 -535 822 -496 858 b -583 997 -496 957 -535 997 b -669 908 -633 997 -669 957 z m -335 908 b -247 822 -335 858 -297 822 b -160 908 -199 822 -160 858 b -247 997 -160 957 -199 997 b -335 908 -297 997 -335 957 z "},"̇":{"ha":0,"x_min":0,"x_max":0,"o":"m -228 910 b -136 817 -228 858 -187 817 b -44 910 -86 817 -44 858 b -136 1001 -44 960 -86 1001 b -228 910 -187 1001 -228 960 z "},"̀":{"ha":0,"x_min":0,"x_max":0,"o":"m -417 1028 l -596 1028 l -339 799 l -231 799 z "},"́":{"ha":0,"x_min":0,"x_max":0,"o":"m -425 1028 l -611 799 l -503 799 l -246 1028 z "},"̋":{"ha":0,"x_min":0,"x_max":0,"o":"m -507 1028 l -693 799 l -585 799 l -328 1028 z m -233 1028 l -418 799 l -311 799 l -53 1028 z "},"̂":{"ha":0,"x_min":0,"x_max":0,"o":"m -143 799 l -332 1028 l -501 1028 l -690 799 l -565 799 l -417 953 l -268 799 z "},"̌":{"ha":0,"x_min":0,"x_max":0,"o":"m -267 1028 l -415 874 l -565 1028 l -689 1028 l -500 799 l -332 799 l -143 1028 z "},"̆":{"ha":0,"x_min":0,"x_max":0,"o":"m -665 1028 b -417 797 -662 890 -562 797 b -168 1028 -271 797 -171 890 l -271 1028 b -417 878 -272 936 -333 878 b -562 1028 -501 878 -561 938 z "},"̊":{"ha":0,"x_min":0,"x_max":0,"o":"m -589 967 b -417 794 -589 872 -511 794 b -244 967 -322 794 -244 872 b -417 1139 -244 1061 -322 1139 b -589 967 -511 1139 -589 1061 z m -319 967 b -417 869 -319 913 -362 869 b -514 967 -471 869 -514 913 b -417 1064 -514 1021 -471 1064 b -319 967 -362 1064 -319 1021 z "},"̃":{"ha":0,"x_min":0,"x_max":0,"o":"m -511 904 b -271 811 -436 904 -356 811 b -108 983 -203 811 -108 860 l -182 983 b -262 906 -186 946 -212 906 b -503 1000 -328 906 -408 1000 b -669 828 -582 1000 -669 943 l -594 828 b -511 904 -589 868 -557 904 z "},"̄":{"ha":0,"x_min":0,"x_max":0,"o":"m -708 886 l -708 799 l -125 799 l -125 886 z "},"̒":{"ha":0,"x_min":0,"x_max":0,"o":"m -61 957 b -10 1035 -61 997 -49 1035 l -10 1068 b -115 957 -58 1068 -115 1031 l -115 840 l 0 840 l 0 957 z "},"̦":{"ha":0,"x_min":0,"x_max":0,"o":"m -115 -56 l -115 -171 l -54 -171 b -104 -249 -54 -211 -67 -249 l -104 -283 b 0 -171 -57 -283 0 -246 l 0 -56 z "},"̧":{"ha":0,"x_min":0,"x_max":0,"o":"m -594 -224 b -450 -292 -574 -256 -519 -292 b -283 -156 -357 -292 -283 -233 b -386 -58 -283 -99 -332 -58 b -468 -89 -415 -58 -447 -71 l -407 6 l -482 6 l -578 -143 l -499 -143 b -422 -110 -479 -121 -446 -110 b -372 -160 -392 -110 -372 -132 b -446 -221 -372 -196 -404 -221 b -524 -181 -469 -221 -504 -208 z "},"̨":{"ha":0,"x_min":0,"x_max":0,"o":"m -218 -131 b -97 -236 -218 -190 -175 -236 b -6 -206 -61 -236 -26 -226 l -6 -146 b -65 -172 -19 -164 -37 -172 b -115 -111 -97 -172 -115 -142 b -62 0 -115 -75 -101 -40 l -143 0 b -218 -131 -183 -29 -218 -87 z "},"̵":{"ha":0,"x_min":0,"x_max":0,"o":"m -685 419 l -685 331 l -149 331 l -149 419 z "},"̶":{"ha":0,"x_min":0,"x_max":0,"o":"m -833 446 l -833 358 l 0 358 l 0 446 z "},"̷":{"ha":0,"x_min":0,"x_max":0,"o":"m -197 753 l -751 -22 l -636 -22 l -82 753 z "},"̸":{"ha":0,"x_min":0,"x_max":0,"o":"m 6 1056 l -811 -83 l -686 -83 l 129 1056 z "},"´":{"ha":833,"x_min":0,"x_max":0,"o":"m 408 1028 l 222 799 l 331 799 l 588 1028 z "},"˘":{"ha":833,"x_min":0,"x_max":0,"o":"m 168 1028 b 417 797 171 890 271 797 b 665 1028 563 797 663 890 l 563 1028 b 417 878 561 936 500 878 b 271 1028 332 878 272 938 z "},"ˇ":{"ha":833,"x_min":0,"x_max":0,"o":"m 567 1028 l 418 874 l 268 1028 l 144 1028 l 333 799 l 501 799 l 690 1028 z "},"¸":{"ha":833,"x_min":0,"x_max":0,"o":"m 264 -224 b 408 -292 285 -256 339 -292 b 575 -156 501 -292 575 -233 b 472 -58 575 -99 526 -58 b 390 -89 443 -58 411 -71 l 451 6 l 376 6 l 281 -143 l 360 -143 b 436 -110 379 -121 413 -110 b 486 -160 467 -110 486 -132 b 413 -221 486 -196 454 -221 b 335 -181 389 -221 354 -208 z "},"ˆ":{"ha":833,"x_min":0,"x_max":0,"o":"m 690 799 l 501 1028 l 332 1028 l 143 799 l 268 799 l 417 953 l 565 799 z "},"¨":{"ha":833,"x_min":0,"x_max":0,"o":"m 164 908 b 250 822 164 858 200 822 b 338 908 299 822 338 858 b 250 997 338 957 299 997 b 164 908 200 997 164 957 z m 499 908 b 586 822 499 858 536 822 b 674 908 635 822 674 858 b 586 997 674 957 635 997 b 499 908 536 997 499 957 z "},"˙":{"ha":272,"x_min":0,"x_max":0,"o":"m 44 910 b 136 817 44 858 85 817 b 228 910 186 817 228 858 b 136 1001 228 960 186 1001 b 44 910 85 1001 44 960 z "},"`":{"ha":833,"x_min":0,"x_max":0,"o":"m 417 1028 l 238 1028 l 494 799 l 603 799 z "},"˝":{"ha":833,"x_min":0,"x_max":0,"o":"m 286 1028 l 100 799 l 208 799 l 465 1028 z m 560 1028 l 375 799 l 482 799 l 740 1028 z "},"¯":{"ha":833,"x_min":0,"x_max":0,"o":"m 125 886 l 125 799 l 708 799 l 708 886 z "},"˛":{"ha":833,"x_min":0,"x_max":0,"o":"m -6 -131 b 115 -236 -6 -190 38 -236 b 207 -206 151 -236 186 -226 l 207 -146 b 147 -172 193 -164 175 -172 b 97 -111 115 -172 97 -142 b 150 0 97 -75 111 -40 l 69 0 b -6 -131 29 -29 -6 -87 z "},"˚":{"ha":833,"x_min":0,"x_max":0,"o":"m 250 967 b 422 794 250 872 328 794 b 594 967 517 794 594 872 b 422 1139 594 1061 517 1139 b 250 967 328 1139 250 1061 z m 519 967 b 422 869 519 913 476 869 b 325 967 368 869 325 913 b 422 1064 325 1021 368 1064 b 519 967 476 1064 519 1021 z "},"˜":{"ha":833,"x_min":0,"x_max":0,"o":"m 267 904 b 507 811 342 904 422 811 b 669 983 575 811 669 860 l 596 983 b 515 906 592 946 565 906 b 275 1000 450 906 369 1000 b 108 828 196 1000 108 943 l 183 828 b 267 904 189 868 221 904 z "},"¹":{"ha":356,"x_min":0,"x_max":0,"o":"m 279 972 l 153 972 b 29 825 151 872 89 828 l 29 728 b 183 885 131 731 169 801 l 183 417 l 279 417 z "},"²":{"ha":535,"x_min":0,"x_max":0,"o":"m 154 504 b 290 632 168 594 218 606 b 481 808 401 672 481 703 b 272 979 481 903 406 979 b 49 757 121 979 49 874 l 147 757 b 278 897 147 861 207 897 b 383 815 331 897 383 867 b 286 714 383 754 333 732 b 49 440 165 669 49 638 l 50 440 l 49 417 l 489 417 l 489 504 z "},"³":{"ha":532,"x_min":0,"x_max":0,"o":"m 364 708 b 464 818 431 725 464 761 b 263 979 464 911 381 979 b 49 783 132 979 49 897 l 144 783 b 260 899 144 854 189 899 b 369 815 321 899 369 865 b 232 742 369 767 317 742 l 232 675 b 393 582 332 675 393 640 b 268 492 393 526 342 492 b 140 610 188 492 140 539 l 43 610 b 269 410 43 488 131 410 b 489 576 399 410 489 476 b 364 708 489 644 442 689 z "}," ":{"ha":139,"x_min":0,"x_max":0,"o":""},"€":{"ha":1215,"x_min":0,"x_max":0,"o":"m 717 106 b 411 350 571 106 454 200 l 844 350 l 864 432 l 396 432 b 393 483 394 449 393 465 b 396 533 393 500 394 517 l 882 533 l 901 615 l 410 615 b 717 867 453 769 569 867 b 1004 576 883 867 988 750 l 1150 576 b 717 989 1138 824 964 989 b 261 615 488 989 311 840 l 96 615 l 75 533 l 249 533 b 247 482 247 517 247 500 b 249 432 247 465 247 449 l 58 432 l 38 350 l 261 350 b 718 -17 311 128 488 -17 b 1150 376 967 -17 1138 142 l 1004 376 b 717 106 989 214 882 106 z "}}}
